<svg xmlns="http://www.w3.org/2000/svg" viewBox="0 0 272.51 77.13"><defs><style>.cls-1{fill:#002f50;}.cls-2{fill:#ed1c24;}</style></defs><g id="Layer_2" data-name="Layer 2"><g id="Layer_1-2" data-name="Layer 1"><rect class="cls-1" x="71.87" y="7.06" width="3.3" height="63"/><path class="cls-2" d="M91.15,46.62h6.59V7.06H91.15Zm33-39.56V46.62h6.59V7.06ZM107.64,46.62h6.59V7.06h-6.59Z"/><path class="cls-1" d="M137.31,13.65h16.48v33h6.59v-33h16.48V7.06H137.31Zm46.19,0h39.56V7.06H183.5Zm0,16.49h39.56V23.55H183.5Zm0,16.48h39.56V40H183.5Zm56-6.59v-33H233V46.62h39.56V40Z"/><path class="cls-2" d="M192.69,59.88V69.93h-1.55l-5.44-6.31v6.31h-2V59.88h1.5l5.5,6.49V59.88Z"/><path class="cls-2" d="M199,61.74v2.31h4.79v1.86H199v2.16h5.38v1.86H197V59.88h7.39v1.86Z"/><path class="cls-2" d="M218.76,69.93h-2V64.31l-2.62,4.14h-1.21l-2.65-4.19,0,5.68h-2V59.88h1.42L213.53,66l3.81-6.09h1.42Z"/><path class="cls-2" d="M229.92,67.92h-4.63l-.83,2H222.3l4.36-10.05h1.88l4.35,10.05h-2.14Zm-.74-1.79-1.58-3.84L226,66.13Z"/><path class="cls-2" d="M243.53,65.91h2.07a4.84,4.84,0,0,1-4.92,4.2,5.21,5.21,0,1,1,0-10.41,4.84,4.84,0,0,1,4.92,4.2h-2.07a2.79,2.79,0,0,0-2.85-2.32,3.33,3.33,0,0,0,0,6.65A2.79,2.79,0,0,0,243.53,65.91Zm-3.77-7L238,56.62h1.81l.86,1.07.84-1.07h1.8l-1.74,2.3Z"/><path class="cls-2" d="M253.31,65.81l-1.64,1.84v2.28h-2V59.88h2v5l4.51-5h2.41l-3.93,4.42L259,69.93h-2.57Z"/><path class="cls-2" d="M269.27,67.92h-4.62l-.83,2h-2.16L266,59.88h1.88l4.35,10.05H270.1Zm-.73-1.79L267,62.29l-1.58,3.84Z"/><path class="cls-2" d="M16.19,16.76c.09-.44.18-.77.23-1.1a1.69,1.69,0,0,1,.74-1.13l.31-.23a.43.43,0,0,0,.12-.61c-.12-.22-.26-.44-.37-.66a1,1,0,0,1,.43-1.4,19.88,19.88,0,0,1,2.11-.8c.4-.15.82-.25,1.21-.42s.55-.58.13-.92-.86-.62-1.26-1A6.1,6.1,0,0,1,19,7.64.86.86,0,0,1,19,6.4c.35-.44.32-.6-.18-.85a9.27,9.27,0,0,1-2.49-1.64,2.3,2.3,0,0,1-.82-2A2.16,2.16,0,0,1,17.29.15a3.36,3.36,0,0,1,3.17.63,9.69,9.69,0,0,0,4.41,1.93,2.65,2.65,0,0,1,.57.15c.49.18.57.35.42.86s-.27.87-.37,1.32c-.13.66.11.9.77.85a6.43,6.43,0,0,1,1.24,0,2.11,2.11,0,0,1,.69.4c.07,0,.12.15.19.17a4.71,4.71,0,0,1,1.37.76,1.16,1.16,0,0,0,1.49,0A4.57,4.57,0,0,1,32,6.72a1,1,0,0,1,.44-.1.93.93,0,0,1,.35.13c0,.1-.06.24-.14.31-.57.53-1.16,1-1.72,1.59A6.55,6.55,0,0,0,30,9.73a.62.62,0,0,0,.31,1,8.5,8.5,0,0,0,3.61.75A1,1,0,0,0,35,10.34c0-.36,0-.72-.05-1.08,0-.59.13-.78.7-.87a17,17,0,0,0,4-1.28c.56-.24,1.17-.38,1.73-.63.84-.38,1.64-.85,2.48-1.21a3,3,0,0,1,2.43.1.89.89,0,0,1,.47,1c-.08.46-.2.9-.3,1.35,0,.06,0,.13,0,.19-.11.65,0,.85.7.87.41,0,.81,0,1.22-.05h.26A4.67,4.67,0,0,0,48,11.12c0,.47.19.76.67.75.73,0,1.46-.11,2.19-.15a5.68,5.68,0,0,1,.92,0c.4.05.55.29.4.66a7,7,0,0,0-.06,4.7,11.4,11.4,0,0,1,.25,1.16.89.89,0,0,1-.29.8,10.34,10.34,0,0,0-1.17,1.4A1,1,0,0,0,51.25,22a19.75,19.75,0,0,1,1.9,1.12,5.31,5.31,0,0,1,2,2.77,2.82,2.82,0,0,1-.58,2.35c-.17.25-.35.5-.5.77a1.36,1.36,0,0,0,.14,1.81c.61.66,1.28,1.27,1.92,1.89l.32.27a2.93,2.93,0,0,0-.7,1.76,2,2,0,0,0,.54,1.69A3.39,3.39,0,0,1,56.9,40a1.73,1.73,0,0,1-.29.51.75.75,0,0,1-1.18.05c-.24-.27-.43-.59-.65-.87a3.66,3.66,0,0,0-1.4-1.22,1.13,1.13,0,0,0-1.07,0c-.36.2-.39.49-.08.77a12.28,12.28,0,0,1,1,1c.38.43.27.69-.28.82l-.1,0a2.53,2.53,0,0,0-1.56.59,7.35,7.35,0,0,1-1.93.94,11.63,11.63,0,0,0-2.87,1.72,5.46,5.46,0,0,1-3.28,1.18A1.49,1.49,0,0,0,42,46a5.7,5.7,0,0,1-.86.76c-.2.15-.4.17-.54-.11a.26.26,0,0,0-.41-.12,4.8,4.8,0,0,0-.84.62.59.59,0,0,0,.08.91c.49.41,1,.75,1.53,1.14a10.43,10.43,0,0,1,1,.85,1.46,1.46,0,0,1,.33,1.61,5.39,5.39,0,0,0-.3,1.53,2.5,2.5,0,0,0,1.22,2.07,8.68,8.68,0,0,0,1.28.82,4.56,4.56,0,0,1,2.23,2.41A2.14,2.14,0,0,0,48,59.65c.77.36,1.52.74,2.26,1.14a3.28,3.28,0,0,1,.77.62.8.8,0,0,1,0,1.24l-.61.61a1.74,1.74,0,0,0-.45.82,1.46,1.46,0,0,1-.51.72c-.58.45-1.21.84-1.8,1.27a14.86,14.86,0,0,0-1.91,1.5c-.91.94-.82,1.67.08,2.62a5.87,5.87,0,0,1,1.61,2.61,1.2,1.2,0,0,1-.94,1.67.77.77,0,0,1-.93-.53c-.18-.41-.37-.82-.59-1.21s-.31-.31-.65-.14a9.9,9.9,0,0,1-1.11.45c-.23.07-.35-.06-.46-.26a5,5,0,0,0-.59-.9.88.88,0,0,0-1.24-.14,5,5,0,0,0-.61.51,4.27,4.27,0,0,1-1.92,1.16A3.68,3.68,0,0,0,36.15,75a1.62,1.62,0,0,1-1.51.7c-.92,0-1.83-.15-2.75-.25-.1,0-.2-.12-.29-.19l-1-.89c-.06,0-.15-.1-.2-.08a7.92,7.92,0,0,0-1.3.43,1,1,0,0,0-.48,1,5.76,5.76,0,0,1,0,.59.74.74,0,0,1-.65.76,5.73,5.73,0,0,1-1,.08c-.3,0-.41-.24-.45-.49s-.08-.65-.13-1a2.4,2.4,0,0,0-2.27-2.29c-.6-.1-1.21-.2-1.8-.34a1.14,1.14,0,0,1-.89-.79.84.84,0,0,0-1.37-.16c-.2.27-.4.55-.61.81-.43.55-.86.52-1.26-.06a1.79,1.79,0,0,0-.45-.46,1.08,1.08,0,0,0-1.71.75c0,.06,0,.13,0,.19-.08.63-.13.64-.69.41a1,1,0,0,0-.75-.07,6.84,6.84,0,0,1-2.32.38c-.62,0-1.23.06-1.85.09s-.67-.08-.76-.54a4.16,4.16,0,0,1-.08-1.27c.11-.88.29-1.75.45-2.62,0-.08,0-.2.1-.23.43-.24.38-.66.39-1a6.39,6.39,0,0,1,1.12-3.48,1.41,1.41,0,0,0,.24-.6,3.14,3.14,0,0,1,1-1.87c.47-.51,1-1,1.43-1.5a3.32,3.32,0,0,0,.38-.46c.23-.34.13-.54-.28-.56s-.83,0-1.25,0A5,5,0,0,1,10.75,59a.94.94,0,0,0-1.24,0c-.22.17-.38.18-.65-.07a1.51,1.51,0,0,0-1.55-.24.85.85,0,0,1-.75,0A11.7,11.7,0,0,1,3.9,56.67a1.09,1.09,0,0,1-.36-1.13.64.64,0,0,0-.22-.5c-.93-.64-.67-1.54-.23-2.23.2-.3.42-.59.6-.9s.13-.57-.3-.58a1.5,1.5,0,0,1-1.12-.6A2.6,2.6,0,0,1,3,46.5a.72.72,0,0,0,.46-1A6.79,6.79,0,0,0,2.22,43.3,17,17,0,0,0,1,42a1,1,0,0,1-.32-1.15c.11-.28,0-.42-.25-.53a.58.58,0,0,1-.33-.9,1.87,1.87,0,0,1,1.3-1.11c.71-.14,1-.58.94-1.43a5.33,5.33,0,0,1,.08-1,2.3,2.3,0,0,0-.21-1.5c-.16-.32-.32-.64-.08-1,0,0,0-.12,0-.17-.09-.43-.21-.85-.27-1.27a.49.49,0,0,1,.41-.56,7.45,7.45,0,0,1,1.23-.18c.84,0,1.67-.05,2.51-.06l.13,0c.69-.13.82-.43.46-1a3,3,0,0,1-.19-.35A1,1,0,0,1,7,28.23,4,4,0,0,1,7.52,28,1,1,0,0,0,8.16,27c0-.41-.26-.62-.6-.78l-.92-.43a.41.41,0,0,1-.23-.49c.07-.49.12-1,.17-1.47s.14-.45.52-.34c.19,0,.38.11.57.14A.94.94,0,0,0,8.84,23,5.41,5.41,0,0,0,9,21.62c0-.66,0-1.34,0-2a3.41,3.41,0,0,1,.29-1.17,1.5,1.5,0,0,0-.49-2.16c-.65-.54-.64-.95-.13-1.61A2.83,2.83,0,0,1,11,13.74c.95-.07,1.91-.11,2.86-.14a1.92,1.92,0,0,1,1.29.51.39.39,0,0,1,0,.63c-.17.2-.37.37-.55.56s-.29.54.06.74A17,17,0,0,0,16.19,16.76Z"/></g></g></svg>