<svg xmlns="http://www.w3.org/2000/svg" viewBox="0 0 287.96 63.05"><defs><style>.cls-1{fill:#ed1c24;}.cls-2{fill:#002f50;}</style></defs><g id="Layer_2" data-name="Layer 2"><g id="Layer_1-2" data-name="Layer 1"><path class="cls-1" d="M15.73,48.28c-.58-.06-1.28,0-1.32-.15a9.76,9.76,0,0,1-.17-1.93,1.34,1.34,0,0,1-1.52-1.06c-.3-1.17.52-1.67,1.41-2.21-.7-1-2-2-.73-3.39a7.73,7.73,0,0,0-6.84.53c-.9.72-.93,1-.16,1.8a1,1,0,0,1,.16,1.23,5.49,5.49,0,0,1-6,2.59A.93.93,0,0,1,0,45.2c0-.19.17-.46.29-.69a3.51,3.51,0,0,0,.39-.74,2,2,0,0,1,1.55-1.64,1,1,0,0,0,.5-.73c-.05-1.07-.17-2.14-.32-3.2A4.78,4.78,0,0,1,5,33.06c.75-.39,1.54-.73,2.29-1.11a1.85,1.85,0,0,0,1.09-2.16q-.13-.69-.21-1.41A2.15,2.15,0,0,1,9.59,26,6,6,0,0,1,11,25.54a3.36,3.36,0,0,0,2.39-1.76c.73-1.14,1.44-2.29,2.18-3.41a13.49,13.49,0,0,1,.9-1.1A1.32,1.32,0,0,1,16,17a4.3,4.3,0,0,1,.64-.64c.4-.32.73-.61.52-1.24-.06-.2.28-.71.54-.81a3.38,3.38,0,0,1,3.69.72c1.34,1.25,1.51,1.28,2.91.09.87-.74,1.67-1.56,2.5-2.36a1.35,1.35,0,0,1,1.48-.43,1,1,0,0,1,.78,1.33c2.36-.41,4.62-.79,6.88-1.2,1.71-.31,2.52,0,3.33,1.6a5.23,5.23,0,0,0,1-.46.69.69,0,0,0,.25-.56.69.69,0,0,0-.42-.46c-.9-.24-1.13-.63-.69-1.45.83-1.5,1.91-2.72,3.79-2.79a2.56,2.56,0,0,1,2.32,1.28,2.61,2.61,0,0,0,.28.31A8.7,8.7,0,0,1,47,11.27a.91.91,0,0,0,1,.57c1.32-.11,2.66-.09,4-.26a4.09,4.09,0,0,1,3,.82c1,.68,1.88,1.41,2.81,2.12.08.06.22.13.22.2,0,.92.85,1.3,1.33,1.91a1.63,1.63,0,0,1-.65,2.74.93.93,0,0,0-.38.5c-.29.85-.57,1.7-.81,2.57-.28,1-.51,2.07-.78,3.18l4.45.46c.38,0,.75.06,1.12.13.65.11.93.5.68,1.12a.63.63,0,0,0,.26.88c.81.53,1.62,1.07,2.47,1.53a1.14,1.14,0,0,0,1.49-.32c.48-.57.92-1.18,1.4-1.76A2.32,2.32,0,0,1,71.61,27a.83.83,0,0,1,.58.92c-.1,1.14-.06,2.29-.26,3.41A29.28,29.28,0,0,1,71,34.53c.24.28.68.76,1.06,1.28a1.67,1.67,0,0,1,.39,1.8,1.8,1.8,0,0,1-1.68.92,2.58,2.58,0,0,1-2.38-1,8.12,8.12,0,0,1-.48-.67c-.64-1-.82-1.07-1.67-.5s-1,1.14-.36,2c.31.41.68.79,1,1.19A1.38,1.38,0,0,1,67,41.61c-.43.52-.44.86.08,1.3s.89.76.61,1.46A2,2,0,0,1,66,45.57a1.36,1.36,0,0,1-1.6-.7,13.22,13.22,0,0,1-.63-1.9c-.14-.42,0-1-.68-1.11-.83-.09-1.83-.45-2.36.43-.7,1.18-1.46,1.71-2.87,1.28-1.64-.49-2.85-1.3-3.09-3.13,0-.35-.12-.69-.14-1a.62.62,0,0,0-.83-.61.92.92,0,0,0-.55.69,8.33,8.33,0,0,0,.34,2.28,2.39,2.39,0,0,1-.26,2.2,16.65,16.65,0,0,1-1.51,1.95c-.59.68-1.29,1.27-1.83,2a5.58,5.58,0,0,0-.89,1.71c-.32,1-.19,1.25.75,1.82s1.08,1.28.31,2.13C48.69,55.14,47.8,55,47,53a7.75,7.75,0,0,1-.35-.91,1.1,1.1,0,0,0-1.09-.93c-.58,0-1.18-.26-1.22-.89a2.76,2.76,0,0,1,.45-1.4c.13-.24.47-.36.71-.53l-.12-.24c-.78-.27-1.57-.54-2.35-.83a7.21,7.21,0,0,1-3.5-2.34,2.3,2.3,0,0,1-.33-2.05c.2-.93.23-1.9.36-3l-4.91,3.7a.84.84,0,0,0,.14.23c1.46,1.08,1.24,1.86.29,3-1.3,1.55-2.7,3-4,4.54a1.48,1.48,0,0,1-2,.27c-.62-.34-1.2-.73-1.78-1.11a1.74,1.74,0,0,0-1.77-.18c-1.19.52-2.37,1.07-3.6,1.48a8.92,8.92,0,0,1-2.7.48,3,3,0,0,1-2.77-2.19C16.16,49.44,15.93,48.79,15.73,48.28Z"/><rect class="cls-2" x="87.33" width="3.3" height="63"/><path class="cls-1" d="M106.6,39.55h6.6V0h-6.6ZM139.57,0V39.55h6.59V0ZM123.09,39.55h6.59V0h-6.59Z"/><path class="cls-2" d="M152.76,6.59h16.48v33h6.6v-33h16.48V0H152.76Zm46.19,0h39.56V0H199Zm0,16.48h39.56V16.48H199Zm0,16.48h39.56V33H199ZM255,33V0H248.4V39.55H288V33Z"/><path class="cls-1" d="M175.27,55.87h-2c-.14-.93-.73-1.5-2-1.5-1.11,0-1.83.42-1.83,1.25s.53,1,1.49,1.23l1.18.24c2,.4,3.09,1.15,3.09,2.81,0,1.9-1.56,3.15-3.93,3.15s-4.21-1.34-4.36-3.5h2c.17,1.05,1.1,1.71,2.49,1.71,1.11,0,1.74-.4,1.74-1.11,0-.45-.25-.9-1.33-1.1l-1.62-.31c-2-.38-2.87-1.39-2.87-2.94,0-1.92,1.52-3.16,3.81-3.16C172.83,52.64,175,53.3,175.27,55.87Zm-1.49-6.31L172,51.85h-1.81l-1.75-2.29h1.8l.86,1.07.85-1.07Z"/><path class="cls-1" d="M188.87,52.81l-4.52,10.12H182.5L178,52.81h2.22l3.23,7.38,3.26-7.38Z"/><path class="cls-1" d="M197.37,60.86h-4.63l-.83,2h-2.16l4.36-10.06H196l4.35,10.06H198.2Zm-.74-1.79-1.58-3.85-1.59,3.85Z"/><path class="cls-1" d="M210.62,59.08a3.62,3.62,0,0,1-4,4,3.52,3.52,0,0,1-3.8-3.5h2a1.67,1.67,0,0,0,1.89,1.62c1,0,1.8-.74,1.8-2.15V52.81h2Z"/><path class="cls-1" d="M222.48,58.85h2.07a4.85,4.85,0,0,1-4.93,4.2,5.21,5.21,0,1,1,0-10.41,4.84,4.84,0,0,1,4.93,4.2h-2.07a2.8,2.8,0,0,0-2.86-2.33,3.33,3.33,0,0,0,0,6.66A2.8,2.8,0,0,0,222.48,58.85Z"/><path class="cls-1" d="M234.72,60.86h-4.63l-.83,2H227.1l4.36-10.06h1.88l4.35,10.06h-2.15ZM234,59.07l-1.59-3.85-1.58,3.85Z"/><path class="cls-1" d="M245.31,59.67h-2.07v3.2h-2V52.81h4.24c2.27,0,3.94,1.36,3.94,3.43a3.22,3.22,0,0,1-2,3l2.62,3.6h-2.44Zm-2.07-1.86h2.16c1.11,0,2-.61,2-1.57s-.92-1.56-2-1.56h-2.16Z"/><path class="cls-1" d="M261.1,55.87h-2c-.13-.93-.72-1.5-2-1.5-1.1,0-1.83.42-1.83,1.25s.53,1,1.5,1.23l1.18.24c2,.4,3.09,1.15,3.09,2.81,0,1.9-1.57,3.15-3.94,3.15s-4.21-1.34-4.36-3.5h2c.16,1.05,1.09,1.71,2.48,1.71,1.11,0,1.75-.4,1.75-1.11,0-.45-.25-.9-1.33-1.1L256,58.74c-2-.38-2.87-1.39-2.87-2.94,0-1.92,1.53-3.16,3.82-3.16C258.66,52.64,260.86,53.3,261.1,55.87Z"/><path class="cls-1" d="M268.77,58.74l-1.65,1.85v2.28h-2V52.81h2v5l4.51-5H274l-3.93,4.42,4.35,5.64h-2.57Z"/><path class="cls-1" d="M284.73,60.86H280.1l-.83,2h-2.16l4.37-10.06h1.87l4.35,10.06h-2.14ZM284,59.07l-1.58-3.85-1.58,3.85Z"/></g></g></svg>