<svg xmlns="http://www.w3.org/2000/svg" viewBox="0 0 313.29 63.38"><defs><style>.cls-1{fill:#ed1c24;}.cls-2{fill:#002f50;}</style></defs><g id="Layer_2" data-name="Layer 2"><g id="Layer_1-2" data-name="Layer 1"><path class="cls-1" d="M57.16,15.29a5.37,5.37,0,0,0,.42,1.11.83.83,0,0,0,.87.39c0-.36-.67-.25-.37-.76l.87.4c-.05-.68-.16-1.46,1-1.13l-.43-1.51.82.32c-.13.24-.26.39-.24.49s.24.28.32.26.21-.22.32-.34.43-.49.67-.71a4.36,4.36,0,0,1,.68-.4l.2.39,1.22-.53.11.37.37-.46-1-.82a12.89,12.89,0,0,1,1.45.24,8.44,8.44,0,0,1,1.25.6,1.46,1.46,0,0,1,.28.21l.13-.07c0-.12-.07-.28-.16-.36s-.4-.28-.59-.43-.09-.15-.12-.23L65,11.7c0-.06-.07-.12-.06-.17.09-.48.19-.95.29-1.47l.33,0c.38,0,.56.15.57.54a2.87,2.87,0,0,0,.11.57l.17,0,.23-1c.27.25.11.87.72.9L67,10.5h.63l-.27-.37c.54-.37.87.35,1.48.27L67.54,9.15l1.55-.62a1.07,1.07,0,0,1,.25-1.76.81.81,0,0,0,.25-.3.53.53,0,0,1,.72-.31.32.32,0,0,0,.29,0,5.39,5.39,0,0,0,.51-.67s0-.13,0-.2a5.8,5.8,0,0,1-.17-.72c0-.28,0-.54.4-.52s.5.19.38.61c.77-.48.49.39.72.48.25-.22.47-.42.69-.6,0,0,.16-.1.2-.08a5,5,0,0,1,1.16.76c.35.38.17.88,0,1.33s-.27.89-.41,1.34l.13.08.69-.67-.05-.09-.25.06c-.11-.35.2-.42.31-.28.31.38.6,0,.88,0a3.1,3.1,0,0,0,1-.35c.25.6.41.61,1.46.2L78,6.22c.88-.08,1.68-.12,2.18.7,0,.07,0,.23-.1.4.26.16.61.39,1,.6a.25.25,0,0,0,.25,0,.27.27,0,0,0,0-.24c-.06-.21-.16-.42-.27-.73.37.25.64.41,1,0,.21-.22.67-.19,1.17-.32l-.8-.55.41-.35-.32-.28c.51,0,.89,0,1.26,0s.58-.12.88-.15a1.57,1.57,0,0,1,.61,0s0,.23.08.44c.21,0,.45,0,.7,0s.35.06.38.15c.14.32.33.19.51.09s.52-.34.79-.47a.83.83,0,0,1,1.12.39c.24.48.47.56,1,.34A4.19,4.19,0,0,1,90.67,6c.38-.07.58-.22.4-.69l.47.05a.72.72,0,0,0,1,.77L91.57,5a15.83,15.83,0,0,1,2.22-.22,23.38,23.38,0,0,1,2.61.36c.15,0,.29.15.4.12a3.84,3.84,0,0,1,1-.15c.51.07.62.36.47.86a.58.58,0,0,0,.06.33c.12.28.26.55.41.89-.41,0-.71.28-1.06-.08s-.59.15-.59.61a2.21,2.21,0,0,0,0,.63c.09.36-.06.52-.43.56.06.08.09.17.12.17.65.05.91.64,1.33,1s.23.42-.2.53a1,1,0,0,0-.58.42A3,3,0,0,0,97,13a3,3,0,0,0-.77-.25c-.38,0-.4.31-.39.63l-.2-.27s-.07,0-.09,0c-.61.59-.27,1.24-.18,1.87l.13-.08c.12.11.33.2.35.32s0,.41.29.45c.07,0,.18.35.15.36-.47.33-.09.61,0,.89l.1.24c-.44.23-.65.54-.2,1H96c0,.24,0,.48,0,.72s-.07.47-.12.79c-.19-.14-.32-.18-.35-.26-.22-.83-.94-1.36-1.28-2.11A2.78,2.78,0,0,1,94,15.93c0-.46.29-.79.33-1.21a4.94,4.94,0,0,1,.1-1.35,1.58,1.58,0,0,0-.07-1.44c0-.1,0-.26.05-.41-.26,0-.4,0-.38.31s0,.85,0,1.28l-.19.06-.49-.63c-.74,0-.81.07-.86,1a.55.55,0,0,1,0,.22c-.11.35-.08.62.4.78-.42.17-.65.57-1.12.16a.54.54,0,0,0-.82.14,1.16,1.16,0,0,1-.85.37.82.82,0,0,0-.93.67c-.26.89-.53,1.78-.8,2.71l.35-.05.68.52c.18-.5.43-.44.77-.21a2.37,2.37,0,0,0,.72.17l-.27-.54.13-.07,1.63,2.75c-.53.29-.44.67.24,1.6l-.46.25c-.07-.12-.18-.3-.3-.47s-.08-.09-.07-.11c.24-.38-.19-.68-.16-1,.06-.6-.32-.92-.69-1.32,0,.19-.07.42,0,.57a3.69,3.69,0,0,1,0,2.58,8.49,8.49,0,0,1-.44,1.15c-.19.55-.46.66-1,.35-.19.4-.68.66-.44,1.23,0,.07-.17.26-.29.35-.31.24-.3.4,0,.65a2.13,2.13,0,0,1,.84,1.25c0,.28,0,.52-.36.54a1.62,1.62,0,0,0-.48.22l-.09-.54a3.11,3.11,0,0,0-.16-.76c0-.1-.27-.13-.5-.24-.07-.18-.12-.58-.33-.7s-.58.07-1,.14l0-.67c-.5-.2-.43.41-.7.55s-.26.3-.55.49l.59.57c.44,0,.74-.09,1-.1.08,0,.17.11.25.16a.93.93,0,0,1-.21.19c-.11.07-.25.09-.36.17-.48.31-.48.58,0,.94a2.37,2.37,0,0,1,.3.39c.14.19.29.37.46.58l-.22.1.32.31-.4.3c.42,0,.62.18.44.58s-.29.57-.43.86c0,0-.08,0-.07,0,.14.68-.45.94-.79,1.35,0,0-.1.13-.16.14-.66,0-1.15.53-1.82.67,0,.13.05.32.12.35.25.12.23.3.1.44a.63.63,0,0,1-.44.24c-.1,0-.19-.24-.3-.39l.45-.26c-.06-.16-.11-.31-.16-.46-.51-.09-1.11.23-1.11.72a1.15,1.15,0,0,0,.48.84,1.93,1.93,0,0,1,.85,1.49.91.91,0,0,1-.23.68A9.88,9.88,0,0,1,82.9,39c.14-.42-.16-.56-.46-.76a10.76,10.76,0,0,1-1.13-1c0,.64-.47,1.13,0,1.76.22.3.5.51.73.78a3,3,0,0,1,.44.8c.11.27.17.55.26.84a1.47,1.47,0,0,1-1.21-1.13,1.57,1.57,0,0,0-.35-.76,1.47,1.47,0,0,1-.38-1.42,5.62,5.62,0,0,0-.58-2l-.95.42v-.47A1.1,1.1,0,0,0,78.67,35c-.19-.09-.28-.37-.42-.56a2.32,2.32,0,0,0-.37-.47c-.15.42-.37.57-.77.46a.39.39,0,0,0-.35.14,11,11,0,0,1-1.87,2,1.2,1.2,0,0,0-.23.63c0,.25,0,.51,0,.74-.15.68-.16.67-.81,1.4-.78-1.66-1.76-3.17-1.87-5-.13.15-.24.43-.39.45a1,1,0,0,1-.62-.27c-.06,0,0-.26,0-.35-.26-.21-.54-.46-.84-.68s-.4-.34-.57-.3a5.53,5.53,0,0,1-2.43-.06.63.63,0,0,1-.35-.26c-.12-.31-.28-.31-.57-.24a1.81,1.81,0,0,1-.83-.07,1.58,1.58,0,0,1-.92-.86c-.06-.14-.4-.15-.66-.23-.06.86.85,1.11.94,1.81a.86.86,0,0,1,0-.17.84.84,0,0,1,.11-.21l.12.34c.06.16.13.45.17.44a2.65,2.65,0,0,0,.84-.2c.16-.07.25-.28.43-.5a2.08,2.08,0,0,0,.2.42,3.47,3.47,0,0,0,.45.4c.2.16.52.27.59.47s-.21.42-.34.62-.18.17-.17.24c0,.41-.29.56-.54.74a7.16,7.16,0,0,1-1.35.86,19.84,19.84,0,0,1-1.88.65.84.84,0,0,0-.17,0c-.56.34-.66.32-.78-.33a4.18,4.18,0,0,0-1.29-2.22s-.13-.11-.14-.17c0-.89-.84-1.35-1.17-2.08-.09-.19-.28-.34-.26-.39l-.07.5-.41-.34a6.74,6.74,0,0,0,1.13,2c.16.18.15.51.22.78,0,.11,0,.32.07.34.7.31.6,1.28,1.36,1.58.27.1.44.52.58.83a.72.72,0,0,0,.8.43c.62-.14,1.24-.25,1.94-.39a2.52,2.52,0,0,1-.14.77,15.33,15.33,0,0,1-1.38,2.14c-.57.67-1.29,1.2-1.92,1.83a5.06,5.06,0,0,0-.63.93s0,.07,0,.08c.27.5-.09,1.15.4,1.59,0,0,.1.1.1.14a10.32,10.32,0,0,1-.1,1.48,1.24,1.24,0,0,1-.47.58c-.39.3-.8.57-1.2.84a.49.49,0,0,0-.19.67,2.74,2.74,0,0,1,.11.57.56.56,0,0,1-.5.69.54.54,0,0,0-.5.68.61.61,0,0,1-.07.43,21.86,21.86,0,0,1-1.59,1.74,1.64,1.64,0,0,1-1.43.43,2.71,2.71,0,0,0-.68.09l-1,.1a4.82,4.82,0,0,0-.65-2.41,7.82,7.82,0,0,1-.44-1.47c-.22-.61-.49-1.2-.74-1.8-.06-.15-.17-.33-.14-.46A2.72,2.72,0,0,1,52.57,46a.58.58,0,0,0,.15-.49c-.16-.64-.37-1.28-.59-1.92a1.06,1.06,0,0,0-.34-.47,1.4,1.4,0,0,1-.41-1.83,1.1,1.1,0,0,0-.06-.71c-.12-.29-.4-.24-.67-.17s-.7.06-.8-.43a.43.43,0,0,0-.36-.25c-.4.06-.79.2-1.18.29a6.21,6.21,0,0,1-.86.16,6.27,6.27,0,0,0-1.16.09,1,1,0,0,1-1-.14l-1-.68c-.09-.07-.21-.17-.23-.27A2.22,2.22,0,0,0,43,37.87c-.1-.06-.12-.26-.17-.4l-.2-.63a1.45,1.45,0,0,0,.23-1.8c-.28-.55,0-.73.21-1a3.57,3.57,0,0,1,1-1.42,3.46,3.46,0,0,0,.62-.44,1.43,1.43,0,0,0,.44-.67A1.48,1.48,0,0,1,46,30.26c.24-.12.39-.41.61-.66a1.87,1.87,0,0,0,1.74-.13,4.86,4.86,0,0,1,1.44-.3c.48-.06,1-.09,1.55-.13l.25.17c-.14.27.41.71-.24,1l0,.1c.31.11.6.23.91.32s.71.06,1,.48c.17.27.66.35,1,.46.06,0,.23-.19.3-.32s.13-.54.24-.57a1.87,1.87,0,0,1,.8.11,3.7,3.7,0,0,0,2.27.34.77.77,0,0,1,.4,0c.74.18.81.15,1.07-.54a1.76,1.76,0,0,0,.13-1.4c-.46-.09-1,.66-1.3.05-.33.08-.64.24-.76.15-.36-.25-1-.27-.85-1,.05-.21-.13-.46-.22-.74-.26,0-.59-.27-.72.28l-.37-.07-.07.09.62.7c-.14.19-.24.34-.35.48a3.54,3.54,0,0,1-.28.29,3.94,3.94,0,0,0-.53-.94,2.29,2.29,0,0,1-.52-1.1,1.42,1.42,0,0,0-.77-.75.86.86,0,0,1-.67-.81c-.29.22-.44.15-.46-.16-.38.26-.38.39-.12.73a4.92,4.92,0,0,0,1.56,1.24c.12.06.2.2.29.3l-.08.09-.36-.23c-.23.3.24.87-.43,1.06.37-.92-.4-1.07-.85-1.44a5.35,5.35,0,0,1-.83-.74c-.36-.46-.64-.54-1.08-.13a.4.4,0,0,1-.57.11c-.37-.19-.54,0-.63.37a1.07,1.07,0,0,1-.32.48c-.28.25-.78.36-.5.91a3.74,3.74,0,0,1-.83.81,2.67,2.67,0,0,1-1,.14l-1-.39c-.43-.67.36-1.49-.1-2.25.58-.42,1.22-.09,1.82-.15.2,0,.57-.07.58-.13a2.55,2.55,0,0,0-.07-1A.8.8,0,0,0,47,24.7s-.12-.11-.11-.16.09-.18.14-.18c.24,0,.47,0,.75,0l0-.39a.8.8,0,0,0,1-.39,2.82,2.82,0,0,1,.58-.51c.05-.53.12-.7.93-.83.6-.09.43-.4.34-.68-.22-.7-.17-.86.53-1.22l.07.94.63-.25-.64-1.47c-.48.21-.83,1.18-1.52.27l.18-.29-.19-.06a11.17,11.17,0,0,1,0-1.16.74.74,0,0,1,.3-.44,3.86,3.86,0,0,0,1.57-2.09c.13-.41.17-1.06.78-1.27,0,0,.06-.13.11-.19.22-.27.31-.72.81-.67,0,0,.09-.07.13-.12a2.5,2.5,0,0,1,1.78-.7,1,1,0,0,1,.9.18l-.47.29a4,4,0,0,0,1.21.32A2.13,2.13,0,0,1,58,14a3.3,3.3,0,0,1,.65.42c.17.17.39.42.36.6a.6.6,0,0,1-.69.54C57.9,15.47,57.5,15.36,57.16,15.29Zm-2.69,4.89c0-.19-.06-.5,0-.55a1.87,1.87,0,0,1,1-.37,1.24,1.24,0,0,0,.94-.29A1.55,1.55,0,0,0,55,19a.62.62,0,0,1-.38,0A.88.88,0,0,1,54,18c0-.3-.07-.54.18-.79a3.93,3.93,0,0,0,.61-.84c.06-.1,0-.38,0-.39a.94.94,0,0,0-.65-.06.68.68,0,0,0-.26.57.69.69,0,0,1-.4.79,1,1,0,0,0-.21,1.64c.25.23.21.46,0,.7a1.06,1.06,0,0,0-.29.47,4.78,4.78,0,0,0-.09.8c-.34.43-1,.28-1.25.81,0,0-.19,0-.29,0a1.52,1.52,0,0,1-.21,0l0,.14,1.36.24c-.06.05,0,0,0,0,.35-.15.76-.49,1-.4.47.15.84,0,1.35,0-.78-.78-.81-.93-.37-1.53l.54.41c.16-.36.14-.61-.29-.73Zm3.73,5.15c-.53-.22-.54-.23-.87.34a4.29,4.29,0,0,1-.38.74c-.26.29-.2.61,0,.74a1.09,1.09,0,0,0,.92.11,1.73,1.73,0,0,1,1.72-.05,3,3,0,0,0,1.11.14.45.45,0,0,0,.36-.26.5.5,0,0,0-.14-.42,1.8,1.8,0,0,0-.54-.41c-.53-.27-1-.85-1.7-.34-.07,0-.28,0-.36-.09S58.27,25.59,58.2,25.33Zm5.45.54a6.42,6.42,0,0,0,.69-.54.47.47,0,0,0,.09-.35.36.36,0,0,0-.2-.26,2.66,2.66,0,0,0-1.52.78.56.56,0,0,0,0,.34,4.93,4.93,0,0,0,1.17,1.7s-.11.09-.13.15c-.07.31-.43.7-.1.9a1.59,1.59,0,0,0,1.69.3l-1-2.35Zm-4,16c-.23,0-.57-.14-.67,0a2.38,2.38,0,0,0-.29.82l.51,0Zm.26-17-.06-.11a9.37,9.37,0,0,0-.86.38s0,.31.11.35c.33.17.58,0,.66-.37A.92.92,0,0,1,59.86,24.91Zm-.14,21.77c-.15-.59.1-1.13-.3-1.56C59.57,45.59,59.16,46.16,59.72,46.68Zm-1.45-2,.14-.08-.55-1.52-.17.06Z"/><path class="cls-1" d="M31.37,22.7a1.1,1.1,0,0,0-.8.31,1.6,1.6,0,0,1-.95.2,5.62,5.62,0,0,1-1-.14c-.37-.06-.52.13-.6.49a2,2,0,0,1,.48.07c.19.08.36.16.19.44-.35.62-.14,1,.57,1.06a.81.81,0,0,1,.22.07s0,.05.05.1c-.48.34-.87.86-1.68.69l.29-.62c-.07,0-.16-.05-.22,0l-1,.44a.77.77,0,0,0-.46,1c-.27,0-.53.07-.78.12s-.46.1-.53.45a2.53,2.53,0,0,1-.5.84c0,.05-.2,0-.31,0,0,.15-.1.34,0,.47.23.52-.07.73-.46,1a9.13,9.13,0,0,0-1.14.82,1,1,0,0,0-.36,1,10.23,10.23,0,0,1,.2,1.08,2.37,2.37,0,0,1-.13.62,1.57,1.57,0,0,1-.72-1.11c0-.44,0-.72-.58-.66a4.31,4.31,0,0,1-1-.25c-.25-.05-.47,0-.54.33s-.37.23-.56.11a1.05,1.05,0,0,0-1.29.09c-.29.2-.67.22-.75.68a5,5,0,0,0-.23,2.23,1.45,1.45,0,0,0,.82,1c.19.06.44-.06.66-.07a2.12,2.12,0,0,1,.42,0c.34-.62.5-1.46,1.6-1.14l-.78,2c.45,0,.85,0,1.25,0s.6.21.48.72-.32.83,0,1.25.51.44.87.26a.75.75,0,0,1,1.06.31c.19-.27.35-.51.53-.73a1,1,0,0,1,.31-.24,9.19,9.19,0,0,1,.85-.38.73.73,0,0,1,.3,0l-.3,1,.08,0,.5-.91c.51,0,.69.55,1.23.46a3.63,3.63,0,0,0,.91-.06c.38-.14.57.35.88.51.65.33,1,1.14,1.9,1.1a1.32,1.32,0,0,1,1.42,1,.51.51,0,0,0,.09.16c.29.46.29.46-.06.82a4.66,4.66,0,0,1,2.22.8c.58.14,1.24-.08,1.8.38.27.22.71.28.9.54a2.13,2.13,0,0,1,.3,1.1c0,.18-.22.39-.36.56-.28.36-.57.69-.86,1a.18.18,0,0,0,0,.13,14,14,0,0,1-.19,1.84,1.85,1.85,0,0,1-.61,1.24c-.06,0-.13.11-.19.1-.82-.1-1.27.54-1.84.94-.1.07-.09.3-.11.46a6.5,6.5,0,0,1-.12.77,1.28,1.28,0,0,1-.23.45c-.28.35-.58.69-.88,1,.21.23-.2.86-.65.86a5.67,5.67,0,0,1-.79-.11c.17.31.41.56.39.79a1.07,1.07,0,0,1-.46.74A3.48,3.48,0,0,1,29,55.8c.1.94.06,1-.76.82,0,0-.05.09,0,.11.31.41.11.86.08,1.29a.6.6,0,0,1-.19.37c-.32.31-.3.66.1.87s.2.41.08.63a9.63,9.63,0,0,0-.53.93,1,1,0,0,0,.07.53,4.74,4.74,0,0,0,.24.51c.29.6.39.67,1.12.92,0,.75-.52.62-1,.51a4.37,4.37,0,0,1-.69-.33,3,3,0,0,0-.48-.23c-.32-.09-.34-.21-.52-.65s-.2-1.09-.73-1.44c-.16-.1-.16-.43-.26-.71.13-.2.5-.48-.07-.74-.05,0-.08-.24,0-.28.4-.34,0-.69,0-1,.05-.57,0-1.13,0-1.69,0-.06,0-.14,0-.18-.45-.71.07-1.36.11-2a2.52,2.52,0,0,0,0-.67,4.4,4.4,0,0,1,0-1.91,4.07,4.07,0,0,0,0-.78c0-.63,0-1.26,0-1.89a1.09,1.09,0,0,0-.77-1.07c-1.16-.37-1.47-1.42-2-2.29-.29-.46-.38-1-1-1.28-.26-.1-.09-.76.24-1-.33-.65-.24-1,.36-1.61a1.53,1.53,0,0,0,.33-2.12,3.23,3.23,0,0,0-.29-.43,2.88,2.88,0,0,1-.3.39.33.33,0,0,1-.29.07,3,3,0,0,1-.73-.25c-.14-.06-.21-.3-.34-.33-.43-.1-.52-.46-.69-.77a1.27,1.27,0,0,0-1-.64,2.51,2.51,0,0,1-1.28-.71,1.35,1.35,0,0,0-.61-.17,3.08,3.08,0,0,1-.87-.06c-.74-.33-1.46-.73-2.17-1.13a.52.52,0,0,1-.19-.45,1,1,0,0,0-.22-1c-.24-.29-.64-.54-.72-.86-.18-.77-1-1.2-1-2,0-.12-.23-.22-.36-.34,0,.16-.17.35-.12.47.13.33.33.64.49,1s.34.73.51,1.09a3.43,3.43,0,0,1,.19.44,1.48,1.48,0,0,1,.07.31l-.69-.53L12,33.27c.11-.64-.45-.85-.83-1.22.4-.11.33-.3.19-.56a3.74,3.74,0,0,1-.55-1.31.92.92,0,0,0-.64-.84c-.47-.15-.49-.54-.58-.84a8.91,8.91,0,0,1-.33-1.83,3.53,3.53,0,0,1,.16-1.45,6.52,6.52,0,0,0,.66-2.66c0-.14-.1-.37-.17-.38-.54-.08-.59-.4-.49-.83a1.12,1.12,0,0,0,0-.24L9.79,21a2.3,2.3,0,0,0,0-.79,2.07,2.07,0,0,1-.16-1.34.42.42,0,0,0-.11-.37c-.09,0-.26,0-.49.11-.34-.21-.37-.69-.44-1.15s-.13-1-.2-1.49a1.2,1.2,0,0,0-.87-1.08c-.43-.11-.61-.42-.9-.65S6.26,14,6,13.85L6,14.44l-1.51.46A8.9,8.9,0,0,1,5,14.08a3.39,3.39,0,0,1,.6-.47s-.12-.1-.16-.08a3.37,3.37,0,0,0-.77.49c-.19.21-.32.46-.67.44,0,0-.14.12-.12.15.23.52-.3.56-.52.72a16.69,16.69,0,0,1-1.7,1,3.85,3.85,0,0,1-.63.27,6.72,6.72,0,0,1-1,.23c.25-.14.35-.42.76-.46a2.62,2.62,0,0,0,1.07-.6,2.78,2.78,0,0,0,.62-.66c.08-.11,0-.29.06-.55l-.29.25,0-.13-.46-.14c-.39-.11-.11-.38-.12-.56s.08-.23.15-.4l-.64,0a4.18,4.18,0,0,1,.18-1.45,4.61,4.61,0,0,1,1.05-1c.19.08.33.18.41.15s.22-.2.3-.27.4.13.44.07a4.26,4.26,0,0,0,.4-.73c-.46,0-.81,0-1.16-.11-.11,0-.28-.17-.28-.25a3.25,3.25,0,0,1,.19-.63l-.27-.36,1.62-.48.06.13L4,8.88A.49.49,0,0,0,4.69,9a1.84,1.84,0,0,1,.57-.09,2,2,0,0,1-.5-.32c-.09-.11-.08-.3-.13-.46L4.44,6.84c.22-.17.4-.53.87-.27.11.06.39-.11.55-.23a2.71,2.71,0,0,1,1.35-.6,1.66,1.66,0,0,0,.32-.17,1.06,1.06,0,0,1,.31-.14c.31,0,.62,0,.93,0l.07-.14.29.62c.64-.15.2.52.48.67,1.09.7,2.39,1.15,3,2.5.31-.34.54-.57,1-.29.17.1.52-.1.78-.17l.51-.11.09.35L15.1,9l.48-.45,0,.93.11,0L16,9l.16.12-.2.58c.13-.06.23-.07.28-.12.31-.28.5-.16.68.17a2.37,2.37,0,0,0,1.38,1c.05,0,.18-.06.21-.12s-.05-.15-.08-.22l0,0c-.33-.13-.63-.34-.45-.71s.57-.19.87-.11a5.69,5.69,0,0,1,.69.25l.09-.19-.7-.34h-.05c-.26,0-.66,0-.7-.32s.41-.23.7-.39c-.62-.05-.66-.37-.45-.88A1.24,1.24,0,0,1,17,8.18L17,7.3a4,4,0,0,0,1.37-1.54c1.16-.19,2,.53,1.76,1.69.35,0,.67.14.42.75l.61-.32.2.48a4.79,4.79,0,0,1,.23-.54c.05-.1.16-.25.22-.24a.44.44,0,0,1,.3.23.64.64,0,0,1,0,.43,9.92,9.92,0,0,0-.4,1.24c0,.22.21.47.29.72a3.2,3.2,0,0,1,.09.62c0,.15,0,.3,0,.45a2.8,2.8,0,0,0,.59-.09c.1,0,.16-.21.25-.33l.27.3.84-1.71-.74.32C23.19,9.37,23,9,22.9,8.57c0-.1.11-.25.17-.38l.43.31c0-.13.1-.27.06-.37-.14-.42.16-.45.42-.5a.48.48,0,0,1,.26,0c.39.13.72.47,1.21.11.15-.11.58.17.89.27-.24.63-.77,1-1.2.83l-.42.47c0,.07-.12.15-.12.22a2.64,2.64,0,0,0,0,.89c.15.43-.11.65-.42.92l.48.13-.1.55.1,0,.29-.35h.12c0,.22,0,.45-.05.67s-.06.44-.1.66c.13,0,.17,0,.18,0a3.66,3.66,0,0,0,1-1.34.44.44,0,0,0-.3-.64c-.37-.16-.52-.35-.23-.7,0,0,.06-.1.05-.1-.27-.21-.09-.39,0-.58.34-.54.62-1.14,1.32-1.3a4.19,4.19,0,0,1,.73,0l-.35.43c.37.23.81-.48,1.07,0a1.94,1.94,0,0,1,.74.1,1.25,1.25,0,0,1,.3.61c0,.07-.09.19-.16.31l1.8,2.39-.49.06.33.31-.49.36,1,1.1a1.24,1.24,0,0,0,.21.19c.25.14.25.27,0,.44s-.52.45-.85.74l-.51-1c-.28.42-.44.72-.05,1.09a1,1,0,0,1,.23.62.45.45,0,0,1-.23.39.59.59,0,0,1-.46-.08,4.27,4.27,0,0,0-.55-.45l.63,1.05-.13.1c-.39-.25-.79-.49-1.16-.76-.09-.06-.12-.24-.15-.38-.1-.52-.41-.71-1-.61a2.59,2.59,0,0,0-.35.1c0-.19-.17-.43-.1-.51s.31-.36.62-.2a1.12,1.12,0,0,0,.54,0,3.2,3.2,0,0,1,.41-.65,1.42,1.42,0,0,0,.63-1c-.25-.24-.59-.44-.74-.73a2.12,2.12,0,0,1-.12-.85l-.95.07-.44,0c.05.11.15.23.12.33a2.72,2.72,0,0,1-.22.56c-.07.16-.24.34-.2.46.13.5-.32.57-.54.79a.46.46,0,0,1-.69,0,.74.74,0,0,0-.46-.13c.19.36.15.87.74.91.11,0,.22.29.28.46a3.87,3.87,0,0,1,.1.61c-.28.26-.46,0-.67-.29l-.68.46-.33-.49.31-.64-.09-.09a1.94,1.94,0,0,0-.42.32c-.2.27-.39.39-.68,0-.27.68-.92.87-1.38,1.27a6.24,6.24,0,0,0-1,1.47s0,.22.06.24c.5.27.36.7.29,1.15a1,1,0,0,1,1.26.57,1.46,1.46,0,0,0,1.39.64l-.17,1.06.33,0,0,.09-.41.07.43.8a.7.7,0,0,0,.52-.85,3.3,3.3,0,0,1,0-.77.54.54,0,0,1,.2-.27c.13-.08.28-.12.42-.19A.86.86,0,0,0,25.88,19c-.28-.45,0-.65.23-.92a.64.64,0,0,0,.14-.3,10.93,10.93,0,0,1,.13-1.15c.08-.31.34-.23.57-.16l.59.16a.75.75,0,0,1,.31.15c.24.3.46.61.73,1a1.11,1.11,0,0,0,.35,1.45L30,18c-.11.79.52,1.46.26,2.35.36.53,1.08.85,1.39,1.55h.14l-.44.85Z"/><path class="cls-1" d="M32.59,7.74c-.2-.2-.62-.29-.31-.72,0,0-.06-.14-.11-.19-.2-.24-.13-.38.15-.46s.23-.26.08-.45-.17-.24-.25-.37,0-.43.19-.43c.57,0,1.06-.52,1.67-.28.07,0,.23-.13.31-.23a4.38,4.38,0,0,0,.32-.45l-.5-.26a1.37,1.37,0,0,1,1.55-.8.94.94,0,0,0,.2-.33c.07-.55.45-.6.89-.63s.62-.06,1-.11l-.17.66c.21.07.57.25.64.18a2.23,2.23,0,0,0,.29-.78c.35.14.36.45.37.77s.12.5.45.26L39.17,2c.41.09.67.08.68-.39,0-.11.24-.21.39-.32l.5.38c.32-.09.27-.6.68-.57a3.92,3.92,0,0,1,1,.11,3.35,3.35,0,0,1,.94.56c.1.08.11.28.16.43l.87.41v.18l-1.17.4L43,3.66c.24,0,.55.14.63-.28,0,0,.24-.09.25-.07s.15.27.11.34a6.43,6.43,0,0,1-.59.64,1.34,1.34,0,0,0,.33,0l1-.59a.87.87,0,0,1,1,.22.49.49,0,0,1-.07.44,7.22,7.22,0,0,0-1,1,9.46,9.46,0,0,0-.67,1.6,5.56,5.56,0,0,1-.29.51c.14.22.58.54.28,1.1l-.43-.33-.37.45.48.28c0,.29-.12.62-.18,1,0,0,0,.11,0,.13.31.25.13.3-.13.35a.6.6,0,0,0-.24.12c.14.2.31.39-.09.48-.17.05-.14.23-.19.34-.25.49,0,1,0,1.43a.48.48,0,0,1-.08.3A3.83,3.83,0,0,1,41,14.17c-.58.17-1.28.09-1.67.68a2.06,2.06,0,0,1-1.76.9c-.33,0-.6.44-.53.6.2.45-.23.56-.34.82a15.24,15.24,0,0,1-.79,1.55l-.51-.31c-.07-.05-.13-.17-.2-.17-.63-.07-.76-.53-.86-1-.15-.71-.32-1.42-.47-2.13a1.48,1.48,0,0,1,.81-1.5c.18-.1.27-.35.43-.58a3.57,3.57,0,0,1-.7,0c-.37-.09-.42-.29-.21-.6.07-.1.12-.21.21-.36l.59.08-.14-.56a1.3,1.3,0,0,1-.33.08c-.23,0-.32-.08-.2-.3a4.15,4.15,0,0,0,.16-2.65,1.09,1.09,0,0,0-.78-1,3.42,3.42,0,0,0-1.07-.09Z"/><path class="cls-1" d="M88.57,47.65l.17.22c.4-.37.78-.74,1.18-1.08,0,0,.2,0,.28.06s.36.23.58.36A1.24,1.24,0,0,1,92,46.13l-.06-.31,1.39.4c-.06.13-.19.34-.29.56-.19.46.13.65.46.83s.34.23.52.34.31.21.42.17a.6.6,0,0,0,.33-.38c.13-.5.2-1,.3-1.52a.93.93,0,0,1,.26-.5c.07.17.14.35.2.53s0,.66.47.72c0,0,.11.08.12.13.08.46.13.92.22,1.38a.59.59,0,0,0,.25.38,1,1,0,0,1,.63.66c.2.45.49.86.71,1.3a2.34,2.34,0,0,1,.23.78,4.49,4.49,0,0,1-.42,2.16,3.18,3.18,0,0,1-.35.62c-.41.64-.84,1.27-1.22,1.92a1.11,1.11,0,0,1-.74.66,2.84,2.84,0,0,0-.77.45l-.34-.62c-.14.39-.4.41-.73.27a1.06,1.06,0,0,1-.74-1c0-.5,0-.5-.28-.61l.13-.45-.58.36.53-.91-.08-.07-.87.79c0-.23,0-.4,0-.56a1.39,1.39,0,0,0-1.47-1,11.55,11.55,0,0,0-1.82.46c-.14,0-.23.2-.36.26s-.38.23-.52.18a1.23,1.23,0,0,0-1.07.2c-.53.31-.92.26-1.17-.12-.06-.1-.11-.29-.06-.36a2,2,0,0,0,.18-1.8,4.31,4.31,0,0,1,.1-2.59c.12-.31.63-.52,1-.66s1-.21,1.46-.4c.19-.08.28-.41.41-.63S88.46,47.85,88.57,47.65Z"/><path class="cls-1" d="M32.25,4.2c-.1.66-.81,1.37-1.22,1.26-.21.17-.38.32-.57.45s-.41.21-.08.45a.42.42,0,0,1-.11.33,3.16,3.16,0,0,1-.61.22c-.29-.5-.74-.32-1.16-.36s-.76-.51-1.21-.11a.72.72,0,0,0,.82.57,2.71,2.71,0,0,1,.9.09c.17.06.41.28.41.43s-.14.66-.46.61a4.33,4.33,0,0,1-2-.48,3,3,0,0,0-.69-.26c.15-.28.29-.51.39-.75s.3-.51-.12-.71c-.18-.09-.28-.35-.46-.58a3.89,3.89,0,0,1,.46-.29c.25-.1.46-.16.46.27a.54.54,0,0,0,.8.45c.17-.07.35-.1.51-.16a.51.51,0,0,0,.22-.19A2.3,2.3,0,0,0,28.86,5a1.59,1.59,0,0,0,.07-.46c-.23,0-.38,0-.54,0A.43.43,0,0,1,27.93,4a11.22,11.22,0,0,1,.4-1.54c.1-.25.06-.78.65-.54-.21-.68.34-.37.57-.53L29.2,1.1c.32-.15.49-.1.52.19s-.17.83.34,1.07c.06,0,0,.26,0,.42l.57-.24a2,2,0,0,0-.26-.22.61.61,0,0,1-.26-.75,1.09,1.09,0,0,0,0-.26c0-.17,0-.46,0-.5A2.1,2.1,0,0,1,31,.74c.19-.29.35.13.51.16l.38-.78.36.64L32.77,0,33,.34,33.22,0l.51.43L33.86,0l.66.34c.22-.14.47-.09.74.15a7.49,7.49,0,0,0,1,.61c-.17.26.65.51.11.86a7.75,7.75,0,0,1-.92.45,8.72,8.72,0,0,1-.79.65,15.51,15.51,0,0,1-1.41.85A5.17,5.17,0,0,1,32.25,4.2Z"/><path class="cls-1" d="M97.11,44.15c-.24.14-.15.31,0,.5s.57.59.9.94c-.56-.15-1.13-.11-1.41-.71-.17-.34-.51-.27-.79-.19-.13,0-.2.25-.3.38l0,.17c-.32-.13-.64-.27-1-.37a6.5,6.5,0,0,0-.82-.17l.39-.29a1.1,1.1,0,0,0-.91-.88,4.11,4.11,0,0,1-.8-.38l-.19.18L92,42.9l.25-.07-.56-.46v-.16a5.18,5.18,0,0,1,.78-.09c.08,0,.18.2.24.32s.14.42.23.68c.34-.25.56-.42.79-.57a.39.39,0,0,1,.3,0c.72.24,1.43.49,2.15.75a1,1,0,0,1,.28.22C96.66,43.68,96.86,43.89,97.11,44.15Z"/><path class="cls-1" d="M84.6,41.26l.27.16c.24-.18.45-.31.63-.47.41-.39.81-.79,1.21-1.2a2.09,2.09,0,0,0,.2-.22l.21.2.45.42c-.13.21-.38.45-.41.71s.21.49.34.77c-.52.2-.58.77-.74,1.29-.11.36-.38.43-.72.28a1.62,1.62,0,0,0-.66-.07,1.47,1.47,0,0,1-.82-.7A.92.92,0,0,1,84.6,41.26Z"/><path class="cls-1" d="M64.35,45.84a1.44,1.44,0,0,1,.18,1.48c-.12.25-.14.55-.24.82-.21.6-.44,1.2-.66,1.8a.84.84,0,0,1-1,.51.45.45,0,0,1-.25-.17,1.62,1.62,0,0,1,.07-1.42.86.86,0,0,0,.17-.92.61.61,0,0,1,.45-.77A1.29,1.29,0,0,0,64.25,46S64.3,45.91,64.35,45.84Z"/><path class="cls-1" d="M60.83,11.66l.25-.51h0c.06-.25.12-.51.17-.76a2.09,2.09,0,0,0,0-.25c0-.15,0-.3,0-.45s.14-.19.11-.24c-.25-.56.26-.86.41-1.29a1,1,0,0,1,.78-.61c.29,0,.51-.12.59-.47,0-.11.33-.17.5-.25.06.2.12.4.17.6,0,0,0,.09-.08.1-.75.29-1,1-1.4,1.6-.05.08-.14.15-.15.23-.1.73-.4,1.47.05,2.19.11.16.29.26.41.41a2.17,2.17,0,0,1,.19.33c-.13,0-.28.14-.39.11-.36-.09-.75-.11-1-.54C61.42,11.75,61.12,11.75,60.83,11.66Z"/><path class="cls-1" d="M58.48,5.06a9.24,9.24,0,0,1-1.15-.41c-.13-.06-.17-.31-.25-.47A2.33,2.33,0,0,1,57.57,4a6.36,6.36,0,0,0,1.17-.11c.21-.07.32-.4.49-.6s.23-.36.4-.42a3.15,3.15,0,0,1,1-.17c.33,0,.41.24.3.58a8.77,8.77,0,0,0-.29,1.12c-.06.27-.22.31-.44.24A1.28,1.28,0,0,0,58.75,5C58.7,5,58.59,5,58.48,5.06Z"/><path class="cls-1" d="M91.63,28.23l.15-.64c.15,0,.38-.05.4-.12a3.29,3.29,0,0,0,.26-1.34.77.77,0,0,1,.17-.76A1.3,1.3,0,0,1,93.08,27a3,3,0,0,0,.1,1c0,.2,0,.41,0,.61l-.13,0-.14-.46c-.06.29-.18.41-.45.42s-.27.2-.39.33a2.8,2.8,0,0,0-.25.41l-.12,0,0-.57c-.33.08-.67.15-1,.26-.07,0-.14.18-.13.27,0,.4.09.8.14,1.2-.31,0-.71-.42-.76-.8C89.85,29,90.55,28.38,91.63,28.23Z"/><path class="cls-1" d="M46.6,21c-.47-.42.16-.66.12-.92l.56-.36-.15.58.5.05-.29.7c.57.39.62,1.25,1.41,1.57l-.2.68.11.11-2,.42,0-.07.66-.5-.6-.18c.12-.1.26-.16.29-.26a.68.68,0,0,0,0-.33l.41-.35-.5-.55-.12.08.12-.35h-.57Z"/><path class="cls-1" d="M83.29,43.93a2.45,2.45,0,0,1-1.82-1.54,5.31,5.31,0,0,0-1.39-1.9,1,1,0,0,1-.3-.44c.39.09.76,0,1.06.47a4.11,4.11,0,0,0,1.26,1c.29.17.49.29.51.69,0,.2.33.38.5.57s.24.22.25.33a6.25,6.25,0,0,1-.08.86Z"/><path class="cls-1" d="M23.39,4.37l-.15,1,.49.1-.21.39c-.24.45-.59.43-1.05.33a3.37,3.37,0,0,0-1.06.14c-.27,0-.48,0-.42-.38,0-.07-.09-.18-.16-.25s-.5-.33,0-.57c.25-.12.41-.41.64-.59s.38-.19.4-.16a1.54,1.54,0,0,1,.35.7c0,.34.16.45.41.49.14-.35.25-.68.41-1C23.07,4.49,23.23,4.46,23.39,4.37Z"/><path class="cls-1" d="M51.38,8.12c-.3-.61-.55-1.1-.8-1.59a1.57,1.57,0,0,1-.18-.37c-.06-.27,0-.49.36-.4s.58.1.67-.39l1.18,1.27c-.54.49-.38,1.26-.68,2Z"/><path class="cls-1" d="M69.5,3.37a1.36,1.36,0,0,1-1.25.06c-.33-.15-.71-.22-1.06-.36-.11,0-.29-.2-.27-.25a.63.63,0,0,0-.2-.69c-.24-.28-.18-.41.34-1,.25.3.49.6.76.87a.56.56,0,0,0,.38.17c.65,0,.72.06.87.69,0,.09.12.16.18.24Z"/><path class="cls-1" d="M102.75,59c.56.55.58.57,0,1.19-.25.28-.39.69-.85.78-.13,0-.21.28-.33.41a6.64,6.64,0,0,1-.75.75.5.5,0,0,1-.46,0c-.47-.33-.48-.53,0-.9s1-.69,1.44-1A.93.93,0,0,0,102,60C102.26,59.68,102.51,59.35,102.75,59Z"/><path class="cls-1" d="M89.79,39.56l.06.35c-.49.11-.62-.17-.62-.65l-.67.45c0-.59.27-.79,1-.76l-.39-.69a1,1,0,0,0-.91-1.1l.15.57c-.16-.07-.31-.09-.32-.15a14.4,14.4,0,0,1-.39-1.7c0-.15.22-.33.34-.49.12.13.3.24.33.38a1,1,0,0,1,0,.65c-.23.39,0,.5.28.56a1.24,1.24,0,0,1,1,.87,3.08,3.08,0,0,0,.45,1.26C90.25,39.28,90.22,39.63,89.79,39.56Z"/><path class="cls-1" d="M41.68,16.41l.58-.26,0-.1h-.53l.44-.75.44.8.16-.32a5.86,5.86,0,0,0,1-.12c.31-.09.39,0,.57.26.38.56-.06.75-.4,1s-.91.59-1.46.17c-.09-.07-.24,0-.37-.06C42.42,16.56,42.05,16.51,41.68,16.41Z"/><path class="cls-1" d="M79.73,2.57l.69.34,0-.39.13,0a1.42,1.42,0,0,0,.47,0c.28-.12.54-.17.74.1a.88.88,0,0,1-.23,1c-.21.15-.4.34-.61.5a.34.34,0,0,1-.24.07A1.22,1.22,0,0,1,79.73,2.57Z"/><path class="cls-1" d="M25.28,3.22l.53-.14c0-.23-.16-.47-.09-.58s.34-.16.43-.19a2.75,2.75,0,0,1,.46.49,2.87,2.87,0,0,1,.15.61l.09-.11c.2.14.5.24.58.43s0,.5-.07.81c-.31-.1-.5-.17-.71-.22l-.51-.08Z"/><path class="cls-1" d="M105.24,57.8l-.37.41c-.34.38-.68.77-1,1.15a1.41,1.41,0,0,1-.35.23c0-.13,0-.29.07-.39s.16-.34,0-.5-.19-.34,0-.48A1,1,0,0,0,104,57a11.13,11.13,0,0,1-.25-1.28c.25.27.54.48.46,1,0,.21.22.46.27.71.1.44.42.29.71.27Z"/><path class="cls-1" d="M89.69,41.42c0,.29-.21.4-.48.42s-.52,0-.78,0A2.54,2.54,0,0,0,88,42l.16.42,1-.23-.7.51.52.73-.51.24L88.24,43h-.11l-.14.9c-.09,0-.27-.1-.26-.14,0-.48-.23-.94,0-1.45.27-.68.32-.73,1.08-.69A3.61,3.61,0,0,0,89.69,41.42Z"/><path class="cls-1" d="M24.41,6.47l.38-.34-.53-.07V4.94l.14,0,.13.29c.41,0,.74,0,1.07.07s.32.2.17.42a5.62,5.62,0,0,1-.71,1C24.85,6.89,24.6,6.75,24.41,6.47Z"/><path class="cls-1" d="M22.53,3.57a.62.62,0,0,1,.56-.69c.39-.06.45-.27.42-.61,0-.13.1-.28.2-.39,0,.66,0,.66.85.74-.15.2-.27.35-.39.49a5.22,5.22,0,0,1-.55.6.59.59,0,0,1-.42.08C23,3.75,22.81,3.66,22.53,3.57Z"/><path class="cls-1" d="M22.29,3.44l-1,1c-.3-.3-.44-.28-.88.12l-.26-.22L19.73,4c.69-.31,1.3-.61,1.93-.84C21.8,3.13,22,3.32,22.29,3.44Z"/><path class="cls-1" d="M31.36,22.71h.15a5,5,0,0,0,0,.88c0,.06.33.05.53.08.06.52,0,.68-.56.74a9.82,9.82,0,0,1-1.29-.05l1.16-1.66Z"/><path class="cls-1" d="M52.56,5.24c.45-.66.79.2,1.19,0-.12.37,0,.81-.54.93a1,1,0,0,1-.76-.27c-.05-.08-.16-.18-.22-.17-.3.07-.39-.14-.35-.32s.26-.2.42-.25S52.5,5.22,52.56,5.24Z"/><path class="cls-1" d="M45.1,22.89c.6-.23.26-.65.25-.84a3,3,0,0,1,.44-.5c.13-.08.35-.16.46-.1a.59.59,0,0,1,.26.43,2.92,2.92,0,0,1-.08.71c0,.06,0,.16,0,.17-.34.12-.69.25-1,.35C45.3,23.12,45.22,23,45.1,22.89Z"/><path class="cls-1" d="M93.52,23.88c.22.24.37.41,0,.6-.17.07-.26.34-.4.55-.21-.13-.44-.37-.75-.16l-.22-.4c.49-.17.19-.5.17-.78,0-.1,0-.2,0-.31C92.79,23.33,92.87,24.27,93.52,23.88Z"/><path class="cls-1" d="M93.89,58.3l1.07.13a1.23,1.23,0,0,1-.82,1.26c-.33.06-.35-.26-.35-.46A8.29,8.29,0,0,1,93.89,58.3Z"/><path class="cls-1" d="M83.28,44l.93.28a1.43,1.43,0,0,0,.35.06,10.64,10.64,0,0,1,1.26.07l-.26.08c0,.33.67-.07.45.45-.48-.07-1-.13-1.45-.22s-.92-.2-1.37-.3l.1-.44Z"/><path class="cls-1" d="M20.85,34.43A1.15,1.15,0,0,1,22.37,34a17.8,17.8,0,0,1,1.7.83,3.28,3.28,0,0,1,.25.22c-.41,0-.71.07-1,.06-.07,0-.13-.19-.21-.29-.28-.33-.7-.36-1.06-.51A1.24,1.24,0,0,0,20.85,34.43Z"/><path class="cls-1" d="M69.94,4.14l-.33-1.48a8.27,8.27,0,0,1,.92.31c.14.07.32.23.33.37s-.14.31-.27.41A4.85,4.85,0,0,1,69.94,4.14Z"/><path class="cls-1" d="M24.18,35.61a2.86,2.86,0,0,0,.43-.21s0-.18-.05-.3c.55,0,1.14-.08,1.56.45A2.27,2.27,0,0,1,24.18,35.61Z"/><path class="cls-1" d="M74.86,38.66a4.27,4.27,0,0,1,.4.64.37.37,0,0,1-.25.57c-.32.09-.36-.14-.36-.36a7.52,7.52,0,0,1,0-.82Z"/><path class="cls-1" d="M53.49,7.53,53.26,8l-.46-.11c0-.28-.09-.52-.11-.77a.7.7,0,0,1,.08-.27.9.9,0,0,1,.24.12C53.17,7.1,53.3,7.29,53.49,7.53Z"/><path class="cls-1" d="M27.68,13.32c.23-.14.46-.29.7-.41.05,0,.24.14.23.15a5.7,5.7,0,0,1-.33.65l-.55-.22Z"/><path class="cls-1" d="M87.71,34.11a1,1,0,0,1,0-1.25s.16-.09.19-.07.15.15.14.21C87.94,33.35,87.83,33.69,87.71,34.11Z"/><path class="cls-1" d="M9,19.12l-.24,1a1,1,0,0,1-.19-.23c-.1-.18-.29-.43-.23-.54S8.74,18.89,9,19.12Z"/><path class="cls-1" d="M83.41,2.81a.71.71,0,0,1-1.17-.18C83,2.47,83.19,2.5,83.41,2.81Z"/><path class="cls-1" d="M98.54,43.17c.18.5,0,.7-.24.85a.88.88,0,0,1-1-.2C97.73,43.67,98.35,44,98.54,43.17Z"/><path class="cls-1" d="M81.94,5.09l.23-.7L83,4.7l0,.19Z"/><path class="cls-1" d="M25.8,7.33l-.54-.47c.38,0,.37-.6.73-.32.12.1,0,.49,0,.74Z"/><path class="cls-1" d="M22.25,8V7.33l.54.11-.34.67Z"/><path class="cls-1" d="M60.57,13.78l0-.63c.19,0,.49,0,.56.11.27.39-.25.32-.32.53Z"/><path class="cls-1" d="M50.74,28.25a2.69,2.69,0,0,1,0-.57c0-.1.18-.16.27-.24.06.09.18.18.17.27C51.2,28,51.25,28.34,50.74,28.25Z"/><path class="cls-1" d="M52.14,28.68H53l0,.58-.87-.44Z"/><path class="cls-1" d="M3.94,15.64l-.79.55c0-.17-.1-.38-.06-.4a7.11,7.11,0,0,1,.75-.33Z"/><path class="cls-1" d="M86.16,44.74l1.43.12,0,.12A1.61,1.61,0,0,1,86.16,44.74Z"/><path class="cls-1" d="M89.05,45.55c.15-.51.46-.67,1.23-.65Z"/><path class="cls-1" d="M27.45,5.08l-.84-.28C26.92,4.46,27.2,4.54,27.45,5.08Z"/><path class="cls-1" d="M87.74,37.93c.12.66-.35.83-.8,1,.14-.15.29-.3.42-.46S87.59,38.15,87.74,37.93Z"/><path class="cls-1" d="M.6,10.17c.08-.16.26-.06.54.6a1.13,1.13,0,0,1-.32-.19A2.67,2.67,0,0,1,.6,10.17Z"/><path class="cls-1" d="M30.38,61.09l.37,0h.32l0,.13-.86.25Z"/><path class="cls-1" d="M91.58,43.3a4.52,4.52,0,0,0-.49-.16,3.19,3.19,0,0,0-.45,0C91,42.74,91.32,42.79,91.58,43.3Z"/><rect class="cls-2" x="112.66" y="0.19" width="3.3" height="63"/><path class="cls-1" d="M131.94,39.74h6.59V.19h-6.59ZM164.9.19V39.74h6.6V.19ZM148.42,39.74H155V.19h-6.59Z"/><path class="cls-2" d="M178.09,6.78h16.49v33h6.59v-33h16.48V.19H178.09Zm46.19,0h39.56V.19H224.28Zm0,16.48h39.56V16.67H224.28Zm0,16.48h39.56V33.15H224.28Zm56-6.59V.19h-6.59V39.74h39.56V33.15Z"/><path class="cls-1" d="M214.71,53,211.4,63.12h-2l-2.24-6.5-2.27,6.5h-2L199.61,53h2.13l2.19,7,2.38-7H208l2.38,7,2.19-7Z"/><path class="cls-1" d="M227.9,58a5.23,5.23,0,1,1-5.23-5.21A5.19,5.19,0,0,1,227.9,58Zm-2,0a3.19,3.19,0,1,0-3.19,3.33A3.22,3.22,0,0,0,225.86,58Z"/><path class="cls-1" d="M236,59.86H234v3.2h-2V53h4.25c2.26,0,3.93,1.36,3.93,3.43a3.22,3.22,0,0,1-2,3l2.62,3.6h-2.44ZM234,58h2.16c1.11,0,2-.61,2-1.57s-.92-1.57-2-1.57H234Z"/><path class="cls-1" d="M251.42,61.19v1.87h-7.2V53h2v8.19Z"/><path class="cls-1" d="M264.26,58a5.12,5.12,0,0,1-5.38,5.08H255V53h3.86A5.08,5.08,0,0,1,264.26,58Zm-2,0a3.23,3.23,0,0,0-3.34-3.12H257v6.33h1.85A3.26,3.26,0,0,0,262.22,58Z"/><path class="cls-1" d="M282.09,53l-3.32,10.12h-2l-2.25-6.5-2.26,6.5h-2L267,53h2.13l2.19,7,2.38-7h1.7l2.38,7L280,53Z"/><path class="cls-1" d="M287.67,53V63.06h-2V53Z"/><path class="cls-1" d="M301.22,58a5.11,5.11,0,0,1-5.38,5.08H292V53h3.86A5.08,5.08,0,0,1,301.22,58Zm-2,0a3.23,3.23,0,0,0-3.34-3.12H294v6.33h1.85A3.26,3.26,0,0,0,299.18,58Z"/><path class="cls-1" d="M307.29,54.86v2.31h4.79V59h-4.79v2.16h5.39v1.87h-7.4V53h7.4v1.86Z"/></g></g></svg>