<svg xmlns="http://www.w3.org/2000/svg" viewBox="0 0 297.62 63.05"><defs><style>.cls-1{fill:#ed1c24;}.cls-2{fill:#002f50;}</style></defs><g id="Layer_2" data-name="Layer 2"><g id="Layer_1-2" data-name="Layer 1"><path class="cls-1" d="M89.9,11v.55c-.33.58-.73,1.08-1.43,1.08l0,.52L88.06,13c-.19.25,0,.75-.58.83l.28-.53-.34-.21a3.07,3.07,0,0,1-.24,1,1.79,1.79,0,0,1-.91.66.61.61,0,0,0-.48.57c-.11,1-.2,1.9-.29,2.74.29.26.5.42.69.6s.22.34.37.39a1.85,1.85,0,0,0,.62,0,3.68,3.68,0,0,0-.23-.44c0-.06-.1-.09-.18-.17.53,0,.65.17.67.77l-1.06.7-.07-.42c-.11.09-.23.14-.23.19,0,.54-.49.67-.87.85a11.52,11.52,0,0,1-1.31.52,3.33,3.33,0,0,0-2.38,2.39c.36,0,.35,0,.41.34A3.65,3.65,0,0,1,81,26.89a.85.85,0,0,1-.13.06l.07-.36-1.14-.42a4,4,0,0,0,.74,1,.88.88,0,0,1,.46,1c-.2,1.06-.45,2.11-.68,3.16h-.21a4,4,0,0,1-.12-.68c0-.35.07-.7.09-1.05S80,29,79.6,28.86l.17.73-.83-1s0-.08,0-.13c0-.6-.09-1.2-.13-1.8a.75.75,0,0,0-.3.4,2.18,2.18,0,0,0,.31,1.7,1.76,1.76,0,0,1,.13.5c.2.43.55.86.5,1.21-.09.52.21.83.29,1.1.27.18.53.26.64.43.31.51.56,1,.84,1.58.18.32,0,.52-.25.64a1.11,1.11,0,0,1-.26.07l0,.06.66,0c-.15.7-.39.87-1.19.95l-.24.82.68-.07.09.11a7.7,7.7,0,0,1-.75.66c-.33.22-.7.37-1,.57a1.42,1.42,0,0,0-.77,1.18c0,.27-.15.34-.4.38a1.64,1.64,0,0,0-1.45,1.63.65.65,0,0,1-.1.38l-1.84,1.75a1.18,1.18,0,0,0-.13.18c-.18.3-.36.59-.52.9a5.11,5.11,0,0,0-.5,1.06,6.19,6.19,0,0,0,1.27,5.12c.33.46.73.88,1.11,1.32l-.13,0a3.86,3.86,0,0,0,.12.59,2.65,2.65,0,0,0,.22.4c.42.86.84,1.72,1.24,2.59s0,1.78.19,2.66c.06.24-.16.53-.23.76-.58-.28-.94.25-1.43.22a3,3,0,0,0-.31-.68c-.2-.27-.45-.69-.7-.71-.57-.05-.67-.41-.82-.8-.06-.13-.14-.26-.22-.42-.39.28-.53.07-.69-.23a7.05,7.05,0,0,0-.73-1.16c-.29-.36-.52-.67-.08-1.08.07-.07.06-.25,0-.37s-.19,0-.3,0v.61l-.15,0a4.56,4.56,0,0,1-.22-.78c0-.5,0-1,0-1.51,0-.32-.19-.82-.4-.89a3.34,3.34,0,0,1-1.48-1.1,1.55,1.55,0,0,0-1.2-.58.53.53,0,0,0-.39.21,2.16,2.16,0,0,1-1.59.78.36.36,0,0,1-.27-.12,2.75,2.75,0,0,0-2.8-.93c-.64.07-1.27.24-1.92.37a1.05,1.05,0,0,0,0-.36,2.32,2.32,0,0,0-.3-.42,1.92,1.92,0,0,1-.25.38,1,1,0,0,1-.42.3c-.53.07-1.07.06-1.59.15a1.1,1.1,0,0,0-1,1.07l.66-.52c.32.57-.08.85-.53,1.23a9.38,9.38,0,0,1,1,.38,1.82,1.82,0,0,1,.39.35c-.19.06-.41.22-.55.17a11.21,11.21,0,0,1-1.19-.61c-.34.15,0,.9-.7.9l.12-.38-.08-.11a2.4,2.4,0,0,0-.61.34c-.37.37-.69.09-1-.06s-.25-.3-.37-.45a2.84,2.84,0,0,0-.72-.61c-.4-.25-.61-.23-.82.07l.72.18,0,.15-.5,0c-.82-.09-1.63-.22-2.45-.28a3.29,3.29,0,0,0-2.84,1,5.58,5.58,0,0,1-1,.83,31.89,31.89,0,0,1-2.88,1.69,1.66,1.66,0,0,0-1,1.77c.05,1,.06,2,.08,3a8.45,8.45,0,0,1-3-1,2.32,2.32,0,0,1-1.14-2.2c0-.1,0-.24,0-.31-.42-.52-.87-1-1.3-1.53a1.66,1.66,0,0,1-.32-.56,3.8,3.8,0,0,0-3-3.21,1.07,1.07,0,0,0-1.38.59,10.11,10.11,0,0,1-.53.9.48.48,0,0,1-.44.15c-.55-.26-1.08-.56-1.61-.86a1.66,1.66,0,0,1-.91-1.3,5.83,5.83,0,0,0-.17-1,2.62,2.62,0,0,0-.54-.91,14.92,14.92,0,0,1-1.4-1.35,2.17,2.17,0,0,0-1.93-1.17,14,14,0,0,1-2-.26l-.18.95A4,4,0,0,1,23,46l-1.86-.26a12.6,12.6,0,0,1-5.55-2c-1.17-.78-2.4-1.45-3.61-2.17a.41.41,0,0,1-.08-.12l.19-.33L10.81,41l-2.62-.4c-.24,0-.44-.1-.44-.46,0-1.17-.25-2.2-1.46-2.52-.1-.25-.11-.46-.22-.56-.39-.36-.83-.68-1.21-1a2.48,2.48,0,0,0-1.5-.81c-.51,0-.65-.23-.45-.72a2,2,0,0,0-.17-1.75c-.3-.56-.63-1.12-.89-1.69s-.37-1,.21-1.38c0,0,0-.11.06-.15-.57-.58-.83-.87-.77-1.41a4.5,4.5,0,0,0-.25-1.79,4.73,4.73,0,0,0-.65-1.63,1.11,1.11,0,0,1-.2-1c.09-.27.12-.56.2-.84A1.39,1.39,0,0,0,0,21.14c.33-.58.66-1.13,1-1.7a3.46,3.46,0,0,0,.35-2.07,4.14,4.14,0,0,1,.32-1.93c.44-1,1.09-1.93,1.56-2.94s.87-2.2,1.29-3.3a.23.23,0,0,0,0-.2c-.17-.28,0-.49.12-.71s.14-.31.09-.37c-.28-.34,0-.43.23-.52a6.37,6.37,0,0,1-.16-3.18c.44.27.87.57,1.33.8s1,.69,1.54-.06l.11.9.15,0v-2l1.15.28A154.43,154.43,0,0,0,35,8.68c3.72.29,7.44.44,11.17.41.86,0,.86,0,1-.8.49-.06.49.31.58.63s.18.7.29.7c.59,0,1.11.66,1.76.23a.44.44,0,0,1,.32,0l1.6.47s.07.06.1.09a1,1,0,0,0,1.49.23c.08-.05.17-.12.24-.11l1.82.41c-.23.4-.67.45-1,.65a4.27,4.27,0,0,0-1.13.72A17.15,17.15,0,0,0,52,13.77c.68.29,1.15-.52,1.86-.43l-.26.55c.58.35,1,0,1.51-.23A4.6,4.6,0,0,0,57,12.34a1.22,1.22,0,0,1,1.15-.49l-1,1.29c.68-.16,1.23-.15,1.53.36a.67.67,0,0,0,.91.33c.59-.18,1.17-.43,1.76-.63.33-.11.67-.18,1-.28.06.74.13.78.73.6l.64-.17.32,1.16A6.69,6.69,0,0,1,63,14.6a4,4,0,0,0-2.24.48,4.55,4.55,0,0,1-1.11.3l-1.21,2.54.14.09,1.1-1.51c0,.16-.05.23-.06.3-.23,1.38-.52,2.75-.68,4.14a4.3,4.3,0,0,0,.59,2.77c.52.85,1,.85,1.52,0a3.19,3.19,0,0,0,0-3.34c-.07-.09-.17-.21-.16-.31a6.18,6.18,0,0,1,.8-3.42c.09-.12.21-.23.31-.34l.12.07c0,.14-.07.27-.09.41s0,.31-.06.46l.19,0a2.19,2.19,0,0,0,.12-.54c0-.62,0-.67.58-.81-.33-.31-.27-.66.18-.77a1.58,1.58,0,0,1,.71.06,8.24,8.24,0,0,1,1.29.46.85.85,0,0,1,.44.53,12.25,12.25,0,0,1,.08,1.6,1,1,0,0,1-.44.85c-.13.1-.16.35-.19.54s.15.23.17.22a1.7,1.7,0,0,0,.45-.26,1.14,1.14,0,0,0,.17-.27c.41-.71.7-.72,1.12,0a2.17,2.17,0,0,1,.3.66c.14.62.25,1.25.37,1.88l-.16-.06a8,8,0,0,0-.58.85c-.15.27-.18.6-.34.85s-.09.51.24.62c1.15.38,1.15.38,2.24-.22.36-.19.72-.39,1.07-.62A10.73,10.73,0,0,0,73,20.08L72.39,19c.72-.13,1.32-.25,1.93-.34A3.78,3.78,0,0,0,76.43,18a.82.82,0,0,0,.06-1.3c-.24-.23-.14-.39,0-.59a15.83,15.83,0,0,0,1-1.34,1.51,1.51,0,0,1,1-.78c.23,0,.46,0,.68-.08,1.08-.27,2.15-.59,3.23-.84.47-.12.84-.26.82-.81l.64-.14c.2-.51.38-.93.54-1.37a.7.7,0,0,0,0-.38,6.06,6.06,0,0,1,.74-3.59c.11.09.2.13.22.19.15.39.37.26.6.09l.25-.21c.26-.23,1.08,0,1.18.28.22.71.47,1.42.63,2.15.11.48.23.85.82.73l.19.74.07-.11Z"/><rect class="cls-2" x="96.99" width="3.3" height="63"/><path class="cls-1" d="M116.27,39.55h6.59V0h-6.59ZM149.23,0V39.55h6.6V0ZM132.75,39.55h6.59V0h-6.59Z"/><path class="cls-2" d="M162.42,6.59h16.49v33h6.59v-33H202V0H162.42Zm46.19,0h39.56V0H208.61Zm0,16.48h39.56V16.48H208.61Zm0,16.48h39.56V33H208.61ZM264.66,33V0h-6.6V39.55h39.56V33Z"/><path class="cls-1" d="M270.6,55.87h-2c-.13-.93-.72-1.5-2-1.5-1.11,0-1.84.42-1.84,1.25s.53,1,1.5,1.23l1.18.24c2,.4,3.09,1.15,3.09,2.81,0,1.9-1.57,3.15-3.93,3.15s-4.22-1.34-4.37-3.5h2c.16,1.05,1.09,1.71,2.48,1.71,1.11,0,1.75-.4,1.75-1.11,0-.45-.25-.9-1.33-1.1l-1.63-.31c-2-.38-2.87-1.39-2.87-2.94,0-1.92,1.53-3.16,3.82-3.16C268.16,52.64,270.36,53.3,270.6,55.87Z"/><path class="cls-1" d="M281.09,60.86h-4.63l-.83,2h-2.15l4.36-10.06h1.87l4.35,10.06h-2.14Zm-.74-1.79-1.58-3.85-1.58,3.85Z"/><path class="cls-1" d="M296.85,57.8a5.12,5.12,0,0,1-5.39,5.07h-3.85V52.81h3.85A5.09,5.09,0,0,1,296.85,57.8Zm-2,0a3.24,3.24,0,0,0-3.35-3.12h-1.84V61h1.84A3.26,3.26,0,0,0,294.81,57.8Z"/></g></g></svg>