<svg xmlns="http://www.w3.org/2000/svg" viewBox="0 0 302.29 63.05"><defs><style>.cls-1{fill:#ed1c24;}.cls-2{fill:#002f50;}</style></defs><g id="Layer_2" data-name="Layer 2"><g id="Layer_1-2" data-name="Layer 1"><path class="cls-1" d="M11.05,46.2a4.35,4.35,0,0,0-.71.53c-.38.39-.67.86-1.06,1.24a1.94,1.94,0,0,1-2.34.44,5.33,5.33,0,0,1-3.11-2.7c-.69-.08-1.44-.17-2.19-.24a1,1,0,0,1-1-1.11,16.72,16.72,0,0,0-.46-2.19c0-.14-.16-.3-.12-.42.36-1.25.51-2.61,1.59-3.63a3.73,3.73,0,0,1-.81-1,2,2,0,0,1-.05-1.34c.09-.19.76-.29,1.1-.2A1,1,0,0,0,3,35.11c.7-1,1.19-1,2-.07a.76.76,0,0,0,.4.27,3.52,3.52,0,0,1,2.85,2.82c1-.12,1.36.2,1.33,1.39.91-.75,1.59-1.53,1.36-2.78a3.89,3.89,0,0,1-.06-1.27.85.85,0,0,1,1.51-.55c.45.5.89.36,1.39.33a12.55,12.55,0,0,1,2.52-.08,2,2,0,0,1,1.16.88,9.77,9.77,0,0,1,.79,1.83c1.06-.26,2.15-.51,3.22-.78a.58.58,0,0,0,.36-.25c.74-1.2.73-1.2,2.2-1.21.21-1.59,1.48-1.69,2.72-1.74,1,0,2.06.05,3.09.06a9,9,0,0,0,1-.06c0-.4-.15-.78,0-1a3,3,0,0,1,.93-1.3.88.88,0,0,1,1.3.43c.07.14.41.23.61.21.92-.11,1.65.08,1.87,1.1L39,32.48,40,30,37.63,26.7c-.64-.9-.7-1.51.1-2.25a13.61,13.61,0,0,1,2.75-1.87,28.19,28.19,0,0,1,3.09-1.33,1.58,1.58,0,0,0,1.11-1.76,8.18,8.18,0,0,1,0-1.64,1.36,1.36,0,0,1,1.74-1.23,14.57,14.57,0,0,0,1.67.42c.24,0,.71-.27.74-.47.09-.67,0-1.37,0-2.05,0-.36,0-.87.24-1a1.17,1.17,0,0,1,1.06,0c.82.51,1.55,1.16,2.36,1.69a7.44,7.44,0,0,0,1.84.94A1.15,1.15,0,0,0,56,15.48c.33-.78,1.06-.69,1.73-.43.44.18.86.41,1.38.66.22-.67.43-1.29.63-1.91.46-1.44.46-1.44,2.05-1.47V9.63c0-1.41.65-1.9,2-1.47a11.67,11.67,0,0,1,1.37.64A5.29,5.29,0,0,1,69.29,9c1.59.58,3.12,1.33,4.7,1.94a22.61,22.61,0,0,0,2.7.79,1.76,1.76,0,0,0,2.22-.83,1.53,1.53,0,0,1,2.37-.42,8.43,8.43,0,0,1,1,.7.91.91,0,0,0,1.19.17c.94-.47,2.27.48,2.37,1.79a4.85,4.85,0,0,1-.46,2.53,3.07,3.07,0,0,0,.47,3.87c1,1.1,1.81,2.29,2.74,3.41.41.5.53.89,0,1.4a1.23,1.23,0,0,0-.36.94,24.39,24.39,0,0,0,.5,2.94c.29,1.32-.21,2.1-1.58,2.13s-2.66-.11-4.19-.17l.73.52a2.73,2.73,0,0,1,1,3.07A1.66,1.66,0,0,1,83.1,35c-1.35.13-1.6.55-1,1.77a19.7,19.7,0,0,1,1,2.12,1.86,1.86,0,0,1-.09,1.5c-1.6,1.76-3.28,3.46-5,5.12a1.18,1.18,0,0,0-.26,1.59c.2.4.44,1,.27,1.28a1.62,1.62,0,0,1-1.24.44c-1,0-2-.24-3.07-.3-.34,0-.88.11-1,.34-1,1.89-2.65,1.75-4.36,1.54-.93-.11-1.86-.26-2.79-.28s-1.24.32-1.48,1.23a4.28,4.28,0,0,1-1.51,1.8c-.51.44-1.16.66-1.43,1.42-.21.6-1.07.65-1.71,0a1.8,1.8,0,0,0-2.21-.37,3.21,3.21,0,0,1-2.66,0c-2.15-1.07-4.51-1.07-6.82-1.35-3.16-.38-6.34-.64-9.48-1.16a16.09,16.09,0,0,1-3.48-1.46,9.67,9.67,0,0,1-1.61-.7,2.15,2.15,0,0,1-.74-1c-.1-.27.06-.64.11-1.08-1.37-.16-2.62-.52-2.09-2.37-.15,0-.26,0-.31,0-2,1.29-4.31,1.28-6.6,1.16-2.83-.16-2.83-.13-4,2.36-1,2.17-2.52,2.46-4.33.86a4.5,4.5,0,0,0-.81-.72,1.34,1.34,0,0,0-1-.09c-.68.27-2.07,0-2.33-.63A5.64,5.64,0,0,1,11.05,46.2Zm28.58-13a7.52,7.52,0,0,1,0,1.06c-.08,1,.13,1.28,1.31,1.52l.42-1.95Z"/><rect class="cls-2" x="101.65" width="3.3" height="63"/><path class="cls-1" d="M120.93,39.55h6.59V0h-6.59ZM153.9,0V39.55h6.59V0ZM137.42,39.55H144V0h-6.59Z"/><path class="cls-2" d="M167.09,6.59h16.48v33h6.59v-33h16.49V0H167.09Zm46.19,0h39.56V0H213.28Zm0,16.48h39.56V16.48H213.28Zm0,16.48h39.56V33H213.28Zm56-6.58V0h-6.59V39.55h39.56V33Z"/><path class="cls-1" d="M220.93,60.86H216.3l-.82,2h-2.16l4.36-10.06h1.88l4.34,10.06h-2.14Zm-.74-1.79-1.58-3.85L217,59.07Z"/><path class="cls-1" d="M235.71,58.34c0,3-1.8,4.71-4.51,4.71s-4.49-1.75-4.49-4.71V52.81h2v5.53c0,1.72,1,2.83,2.48,2.83a2.52,2.52,0,0,0,2.5-2.83V52.81h2Z"/><path class="cls-1" d="M247.79,55.87h-2c-.13-.93-.72-1.5-2-1.5-1.1,0-1.83.42-1.83,1.25s.53,1,1.49,1.23l1.19.24c2,.4,3.09,1.15,3.09,2.81,0,1.9-1.57,3.15-3.94,3.15s-4.21-1.34-4.36-3.49h2c.16,1,1.09,1.7,2.48,1.7,1.11,0,1.75-.4,1.75-1.11,0-.45-.25-.9-1.33-1.1l-1.63-.31c-2-.38-2.87-1.39-2.87-2.94,0-1.92,1.53-3.16,3.82-3.16C245.35,52.64,247.55,53.3,247.79,55.87Z"/><path class="cls-1" d="M259.64,54.68h-3.41v8.19h-2V54.68H250.8V52.81h8.84Z"/><path class="cls-1" d="M267.25,59.67h-2.07v3.2h-2V52.81h4.24c2.26,0,3.94,1.36,3.94,3.43a3.22,3.22,0,0,1-2,3l2.62,3.6h-2.44Zm-2.07-1.86h2.16c1.11,0,2-.61,2-1.57s-.91-1.56-2-1.56h-2.16Z"/><path class="cls-1" d="M277.43,52.81V62.87h-2V52.81Z"/><path class="cls-1" d="M288.64,59.08a3.63,3.63,0,0,1-4,4,3.52,3.52,0,0,1-3.8-3.49h2a1.67,1.67,0,0,0,1.89,1.61c1,0,1.81-.74,1.81-2.15V52.81h2Z"/><path class="cls-1" d="M299.06,60.86h-4.63l-.83,2h-2.16l4.36-10.06h1.88L302,62.87h-2.15Zm-.74-1.79-1.59-3.85-1.58,3.85Z"/></g></g></svg>