<svg xmlns="http://www.w3.org/2000/svg" viewBox="0 0 293.36 65.79"><defs><style>.cls-1{fill:#ed1c24;}.cls-2{fill:#002f50;}</style></defs><g id="Layer_2" data-name="Layer 2"><g id="Layer_1-2" data-name="Layer 1"><path class="cls-1" d="M0,24.81q3.15-6.54,6.3-13.1c.34-.7.75-1.36,1.13-2a2.06,2.06,0,0,1,.29-.37c.3-.3.49-.3.7.07s.51,1,.76,1.52l.72,1.44c.14.26.31.29.55.09s.5-.36.73-.57a2.57,2.57,0,0,1,2.13-.63,1.48,1.48,0,0,1,.45.23c-.11.16-.17.41-.33.48-.31.15-.68.18-1,.3a7.83,7.83,0,0,0-.91.41,1.73,1.73,0,0,0,2,.1c.4-.32.74-.7,1.12-1.05s.63-.3.75.23a6.51,6.51,0,0,1,.07.76c0,.2.06.4.11.72a5.49,5.49,0,0,1,.62-.52,2.67,2.67,0,0,1,.5-.17,4.48,4.48,0,0,1,.12.46,4.68,4.68,0,0,1,0,.53s.08.05.1,0a2.11,2.11,0,0,1,2,.75,9.61,9.61,0,0,0,.91.78c.52.35,1.08.65,1.62,1a2.43,2.43,0,0,1,.61.44c.33.38.29.6-.09.93-.65.56-.64.89.11,1.31a5.7,5.7,0,0,0,1.34.51.85.85,0,0,0,.6-.1.81.81,0,0,1,1.11.05c.37.28.73.58,1.1.88.21-.49.51-1.13.77-1.77.12-.31,0-.5-.37-.49s-.58,0-.87.06L25.64,18l1.68-1.28c.16.28.28.45.39.63a3.07,3.07,0,0,0,2.74,1.56A1.62,1.62,0,0,0,31.93,18a1.19,1.19,0,0,1,1.7-.25.6.6,0,0,1,.12.42,6.36,6.36,0,0,1-.16.7c-.1.4-.05.5.29.73.3-.95.61-1.91.9-2.88a.55.55,0,0,0-.25-.7.77.77,0,0,1-.16-.19,9.22,9.22,0,0,0-.77-1.15,1.53,1.53,0,0,1-.4-1c0-1.07-.07-2.15-.19-3.22-.07-.58-.41-1.13-.47-1.7-.1-1-.09-2-.1-3,0-.1.18-.27.28-.28a15.17,15.17,0,0,1,1.65-.06c.35,0,.5.17.39.56a8.94,8.94,0,0,1-.52,1.91,3,3,0,0,0-.09,2.37,4.32,4.32,0,0,0,.7,1.3,2.15,2.15,0,0,1,.41,1.64.5.5,0,0,0,.43.65c.14,0,.27.09.41.13a.35.35,0,0,1,.3.46.9.9,0,0,0,.38.92c.14-.16.25-.31.39-.45s.48-.3.69,0,.46.87.71,1.29a7.64,7.64,0,0,0,.54.73,8.33,8.33,0,0,0,.36-.81c.11-.39.16-.8.26-1.2a1.78,1.78,0,0,0-.23-1.58c-.21-.27-.07-.46.19-.61a2,2,0,0,1,2.19.53.75.75,0,0,1,.09.41,3.08,3.08,0,0,0,.44,1.83,2.93,2.93,0,0,1,0,2.88,6.27,6.27,0,0,1-1.23,1.3c-.14.14-.33.29-.36.47a3.11,3.11,0,0,1-.92,1.68,3.46,3.46,0,0,0-.29.4,1.54,1.54,0,0,0,.22.14,1.43,1.43,0,0,1,.34,2.39,8.62,8.62,0,0,1-1.06.83l-.4.3c.46.8.4,1.07-.17,1.8a9.33,9.33,0,0,0-1.64,3.79A6.41,6.41,0,0,0,37,34.76a2,2,0,0,0,1.3,1.39,3.67,3.67,0,0,1,1.17.92,3.49,3.49,0,0,1,.48.76c.37.66.35.6,1.1.49a4.29,4.29,0,0,1,3.57,1.09,1.84,1.84,0,0,0,1,.51,8.91,8.91,0,0,1,1.59.43.89.89,0,0,0,.79-.07,5.21,5.21,0,0,1,1.23-.4c.11,0,.32.14.39.27.31.61.54,1.27.89,1.86.46.76,1,1.47,1.52,2.2a1.75,1.75,0,0,0,1,.65,3.58,3.58,0,0,1,1,.62c.37.31.57.32.89,0a1.82,1.82,0,0,0,.33-1.69,9,9,0,0,0-1.6-3.48,2,2,0,0,0-.7-.52,4.38,4.38,0,0,0-.71-.28c.11-.19.19-.35.29-.49a5.19,5.19,0,0,0,.95-4.49A3.61,3.61,0,0,0,52.7,33a5.41,5.41,0,0,0-1.38-1.19,2.23,2.23,0,0,1-1-1.83c-.09-.76-.26-1.5-.41-2.25a.86.86,0,0,0-.55-.75c-.1,0-.18-.21-.22-.34-.21-.6-.39-1.21-.61-1.81a1,1,0,0,1,.24-1.13,6,6,0,0,1,2.75-1.52,2,2,0,0,1,1.38.3c.36.17.7.37,1.07.52s.69.11,1-.33l.15-.2c.57.87,1.14,1.67,1.64,2.53a1.91,1.91,0,0,0,2.38.74.65.65,0,0,0,.28-.39,4.46,4.46,0,0,0-.21-3.27,1.15,1.15,0,0,1,0-.8.54.54,0,0,1,.81-.37c.37.16.71.41,1.08.58.53.24,1.07.48,1.63.68s1,.31,1.55.48a.35.35,0,0,1,.18.28,2.72,2.72,0,0,0,1.08,1.81,1.23,1.23,0,0,0,.76.15,2.09,2.09,0,0,1,1.45.46,1,1,0,0,0,.86,0,10.93,10.93,0,0,0,1.22-.83c.31-.2.58-.51,1.08-.4L70,27l.13.07a3,3,0,0,0,.28-.37c.19-.33.35-.68.55-1s.3-.44.65-.26c.09.05.29-.05.4-.13a1.58,1.58,0,0,1,2.15.12,2.33,2.33,0,0,1,.68,2.32c-.27,1.61-.54,3.23-.8,4.85A5.11,5.11,0,0,1,72,35.61c-.81.69-1.61,1.39-2.47,2a2.57,2.57,0,0,0-1.11,2.08,4.07,4.07,0,0,1-.73,2.14,2.52,2.52,0,0,0-.34,1.28c-.09,1.5-.11,3-.16,4.51l.15,0c.1-.46.22-.91.3-1.38.21-1.24.31-2.5.63-3.72A6,6,0,0,1,71,38.82c.56-.33.87-.09,1,.52A1.91,1.91,0,0,1,71.73,41c-.13.22-.28.43-.39.66a.34.34,0,0,0,0,.31s.2,0,.29,0a3.23,3.23,0,0,0,.41-.22.68.68,0,0,1,1.06.34,2.52,2.52,0,0,0,4,.47,1.38,1.38,0,0,0,.35-1.17c-.08-.55-.1-1.1-.14-1.65,0-.32.11-.44.44-.34,1.57.46,1.27.44.82,1.58a4,4,0,0,0-.11.93,3.34,3.34,0,0,1-.12.78c-.35,1-.81,1.91-1.09,2.89-.31,1.14-.46,2.33-.7,3.49-.13.65-.32.85-.72.83a1.23,1.23,0,0,1-1-1,4.32,4.32,0,0,1,.23-1.24c.24-.71.53-1.4.8-2.1.06-.15.11-.31.17-.46-.74-.33-1.09-.14-1.32.55s-.54,1.45-.85,2.16a1,1,0,0,1-1.13.55l-.38-.05a1.23,1.23,0,0,1-1.21-.94,10.12,10.12,0,0,0-.63-1.48c-.34-.6-.59-.61-1.17-.24a1,1,0,0,0-.49,1c0,1.24,0,2.49-.06,3.74a2.43,2.43,0,0,1-1.23,2.23,13.48,13.48,0,0,1-1.7.85,1.65,1.65,0,0,0-1,.86c-.35.78-.64,1.6-1,2.36a11.13,11.13,0,0,1-1.16,1.65c-.43.55-.92,1-1.36,1.58a4.76,4.76,0,0,0-.51.73c-.17.3-.19.56.22.69s.36.28.17.53a23.89,23.89,0,0,1-3.86,4l-.09,0c.55-2.26,1-4.51.17-6.91.21.1.43.17.63.29s.49.34.81.15.3-.49.28-.8c0-.83-.54-1.28-1.52-1.38a4.42,4.42,0,0,0-2.79.52,1.2,1.2,0,0,1-1.52-.12,5.08,5.08,0,0,1-1.77-1.91c0-.07-.15-.17-.22-.16A3.47,3.47,0,0,1,49.71,55c-.27-.11-.54-.24-.82-.33-.48-.15-.67-.07-.89.37s-.33.76-.85.85c-.22,0-.39.31-.61.44a4.67,4.67,0,0,1-4.36.63,10.22,10.22,0,0,0-4.9-.46c-2.07.16-4.15.34-6.23.47s-4.41.24-6.62.31A39.79,39.79,0,0,1,13.62,56c-1.62-.41-3.23-.83-4.85-1.23a1.12,1.12,0,0,1-.85-.69,13.32,13.32,0,0,0-3.17-4.82,1,1,0,0,1-.25-1.07c.19-.7.28-1.42.41-2.12,0-.34,0-.58-.44-.56-.18,0-.43-.26-.54-.46a4.46,4.46,0,0,1-.47-2.3,8,8,0,0,1,.21-1.46,2,2,0,0,1,.59-1,3.5,3.5,0,0,0,.67-1.43,1,1,0,0,0-.22-.68,9.4,9.4,0,0,1-1.15-4.08c-.19-1.67-.5-3.33-.76-5a3.57,3.57,0,0,0-.18-.46c-.36.17-.7.34-1,.49s-.62.13-.64-.39c0-.88-.06-1.75-.07-2.63,0-.35-.08-.6-.47-.7-.15,0-.27-.19-.4-.29Z"/><path class="cls-1" d="M57.06,18.69a8.63,8.63,0,0,1-2.46,1.1,2.82,2.82,0,0,0-.87.47.79.79,0,0,1-1.08,0l-1.89-1.13a1.57,1.57,0,0,0-1.88.14,2.66,2.66,0,0,1-2,.69,2.31,2.31,0,0,1,.87-2.29,1.14,1.14,0,0,0,.52-1.39c-.24-1-.35-2-.55-3a2.25,2.25,0,0,0-1.88-1.93,12.44,12.44,0,0,1-1.77-.69c-.46-.18-.94-.34-1.45-.52a1.48,1.48,0,0,1-1.25,1.17,13.5,13.5,0,0,1-4.15.5c-.63-.05-.71-.27-.35-.78s.19-.56-.27-.61l-.8-.05c0-1.09.08-2.16,0-3.21a3.31,3.31,0,0,1,1-2.67l.1-.06c0,.59.07,1.16.17,1.72s.31,1.4.5,2.09c0,.16.25.26.39.4l.15-.1a2.45,2.45,0,0,0-.16-.62A3.62,3.62,0,0,1,37.8,5a.7.7,0,0,1,.74-.61c.61,0,.76.09.94.59.1.31.2.62.31.93a.7.7,0,0,0,.09.09,1.54,1.54,0,0,0,1-.68A1.74,1.74,0,0,1,43.74,5c.25.26.45.42.78.1.07-.08.32-.07.44,0s.38.35.61.46a4.72,4.72,0,0,0,1,.39c.4.09.82.09,1.23.16.07,0,.16.21.16.33,0,.41.13.63.58.47h.13c.24,0,.61,0,.68.17a1,1,0,0,1-.11.74c-.23.51-.23.55.34.69s1.09.35,1.63,0c.09-.06.27,0,.41,0,.49.06,1,.18,1.46.19,1.28,0,1.91.61,1.87,1.89a2.33,2.33,0,0,0,.21,1.4c0,.06-.06.3-.13.32a3.14,3.14,0,0,1-.91.1,10.29,10.29,0,0,1-1.2-.26,1,1,0,0,0-1,.34c-.31.34-.29.43.13.58a13.75,13.75,0,0,1,1.33.42c.88.4,1.74.81,2.58,1.28a1.75,1.75,0,0,1,.74,1.54c0,.3-.18.42-.44.48L55,17l-.41.14Z"/><path class="cls-1" d="M26.36,9.08v-1c0-.22.07-.32.34-.28a.79.79,0,0,1,.72.63c.26.9.6,1.77.88,2.66a4.66,4.66,0,0,0,1.18,2l.17.18c.77.84.77.84-.18,1.54a1.94,1.94,0,0,1,.37.32c.1.14.22.35.18.46a.75.75,0,0,1-.44.33,1.67,1.67,0,0,1-.59,0,6,6,0,0,0-3.09.39,7.83,7.83,0,0,0-1.38.94,4.41,4.41,0,0,1-.49.39c-.57.26-.92.09-1-.52a1.87,1.87,0,0,0-1.44-1.76,1.13,1.13,0,0,1-.4-1.95.84.84,0,0,1,.56-.14c.42,0,.84.1,1.26.13a1.78,1.78,0,0,0,.45-.08l0-.13a2.93,2.93,0,0,0-.59-.29c-.29-.06-.59-.05-.88-.1a2.09,2.09,0,0,1-.68-.22,3.18,3.18,0,0,1-.55-.55l.49-.43.47-.37c-.06-.08-.07-.12-.09-.12-.65-.06-.57-.52-.54-1a3.49,3.49,0,0,0,0-.72A1.07,1.07,0,0,1,22,8.12c.2-.07.39-.19.58-.27s.23,0,.24,0c.17.39.51.17.78.23a7.13,7.13,0,0,1,1.1.29C25.23,8.55,25.74,8.8,26.36,9.08Z"/><path class="cls-1" d="M76,26.69a4.75,4.75,0,0,1,.91,2c0,.21.07.42.12.62s.18.31.43.18.61-.21.89-.36a3.25,3.25,0,0,0,.73-.55c.42-.47.65-.5,1.13-.09.11.09.21.19.31.29.26.24.52.43.83.11,0,0,.09,0,.1,0a2,2,0,0,0,.87.79,2.89,2.89,0,0,1,.91.87,1.81,1.81,0,0,1-.43,1.88c-.09.05-.3,0-.4-.13s-.13-.26-.26-.52c-.47.83-.5,1.78-1.28,2.32l-.15-1.24-.16,0a3.48,3.48,0,0,0-.38.64,2.56,2.56,0,0,1-.87,1.11A15.09,15.09,0,0,0,78,36l-.35-.31c-.14-.14-.25-.34-.42-.41a1,1,0,0,1-.62-1.1,16.91,16.91,0,0,0-.75-4.12,5.65,5.65,0,0,1-.12-2.68A5.81,5.81,0,0,1,76,26.69Z"/><path class="cls-1" d="M20.2,4.13a10.29,10.29,0,0,1,1.09.58,1.9,1.9,0,0,1,.46.55c.63.94.61,1.13-.09,2s-1.29,1.72-2,2.54a7.55,7.55,0,0,1-1.07,1c-.2.16-.34.11-.45-.14-.18-.43-.43-.83-.57-1.27a1.56,1.56,0,0,1,.06-.85c.25-.82.55-1.62.83-2.44a1.61,1.61,0,0,0,.07-.37A1.72,1.72,0,0,1,20.2,4.13Z"/><path class="cls-1" d="M24.74,2.78a1.53,1.53,0,0,0-1.29,0c-.23.09-.45.18-.67.25s-.48,0-.48-.33,0-.57,0-.85a.42.42,0,0,1,.55-.46c.54.1,1.08.19,1.61.33A.43.43,0,0,0,25,1.5c.36-.5.37-.48,1-.21.32.14.65.25,1,.39a.93.93,0,0,1,.64,1A1.87,1.87,0,0,1,26.8,4.2,2.45,2.45,0,0,1,24,4.48c-.48-.28-.53-.53-.13-.92S24.42,3.06,24.74,2.78Z"/><path class="cls-1" d="M46.09,22.36a2.32,2.32,0,0,1-.49.41,5.28,5.28,0,0,1-1.19.42,1.25,1.25,0,0,0-1,.74A1.79,1.79,0,0,1,42.12,25c-.63.17-.79,0-.79-.63a22.93,22.93,0,0,0-.08-2.62,1.41,1.41,0,0,1,.9-1.52.51.51,0,0,1,.5.1,2.7,2.7,0,0,0,1.65,1,.46.46,0,0,1,.28.35c0,.35.19.43.49.44l1,.06Z"/><path class="cls-1" d="M31.82,0a9,9,0,0,0,1.63.56c1,.14,2.11.18,3.17.25.39,0,.77,0,1.15,0,.59,0,.83.43.48.93a1.59,1.59,0,0,1-.67.56,7.54,7.54,0,0,1-3,.65,1,1,0,0,1-1-.56A3,3,0,0,0,32.06,1C31.44.72,31.42.58,31.82,0Z"/><path class="cls-1" d="M7,56.21a1.71,1.71,0,0,1-.27-.2c-.6-.63-1.22-1.26-1.78-1.92a3.44,3.44,0,0,1-.42-.91,2.92,2.92,0,0,0-.23-.58,1.2,1.2,0,0,1-.34-.92.27.27,0,0,0-.11-.25,1.21,1.21,0,0,1-.52-1c-.06-.3-.22-.58-.28-.88a1.33,1.33,0,0,1,0-.48c.14.06.31.07.4.17a18.65,18.65,0,0,1,2,2.2,10.73,10.73,0,0,1,1.67,4,3,3,0,0,1,0,.67Z"/><path class="cls-1" d="M31.42,5.21a11.37,11.37,0,0,1,.29,1.53c.07,1.12.1,2.25.1,3.38a.86.86,0,0,1-.38.68.87.87,0,0,1-.77-.16,4.46,4.46,0,0,1-1.42-2.16c-.11-.39,0-.56.39-.61s.33-.18.33-.43A2.29,2.29,0,0,1,31.42,5.21Z"/><path class="cls-1" d="M28.38,1.39a1.21,1.21,0,0,0,1.31-.28.34.34,0,0,1,.24,0A1.43,1.43,0,0,1,31,2.78a.83.83,0,0,1-.76.58c-.35.06-.55-.14-.7-.43a.6.6,0,0,0-.7-.41.41.41,0,0,1-.31-.21,6.71,6.71,0,0,1-.22-.8Z"/><path class="cls-1" d="M33.11,16.26a5,5,0,0,1-.59-.05.59.59,0,0,1-.57-.53,6.63,6.63,0,0,1,0-1.26c0-.32.29-.31.48-.22a2.8,2.8,0,0,1,1.4,1.51c.12.3,0,.53-.36.54Z"/><path class="cls-1" d="M40.31,2.75a1.45,1.45,0,0,1,1.13.89.55.55,0,0,1-.13.41,8.7,8.7,0,0,1-.8.68A.28.28,0,0,1,40,4.62c-.14-.26-.28-.52-.41-.79A.72.72,0,0,1,40.31,2.75Z"/><path class="cls-1" d="M52.1,36.31c0,.73-.1.9-.65,1.06-.1,0-.29.05-.31,0a13.5,13.5,0,0,1-.61-1.27c0-.06.11-.22.21-.29a1.71,1.71,0,0,1,.46-.19C52,35.39,52.1,35.46,52.1,36.31Z"/><path class="cls-1" d="M45.92,15.2a2.85,2.85,0,0,1-.73-1.5.5.5,0,0,1,0-.17c0-.24,0-.48,0-.72a3,3,0,0,1,.66.2c.73.37.78.53.47,1.29C46.25,14.59,46.09,14.85,45.92,15.2Z"/><path class="cls-1" d="M76.3,40.91c.39.9.22,1.35-.62,1.73s-1.34.17-1.74-.7C75.16,42.54,75.6,41.49,76.3,40.91Z"/><path class="cls-1" d="M56.91,21.85c.9.71.93,1.23.16,1.88C56.27,23,56.26,22.92,56.91,21.85Z"/><path class="cls-1" d="M33,2.83,33,3.12c-.08.28-.2.58-.54.55s-.34-.36-.35-.63a6,6,0,0,1,0-.85c0-.25.23-.39.45-.18a5.78,5.78,0,0,1,.55.75Z"/><path class="cls-1" d="M2.13,40.87,1,42.25v-2Z"/><path class="cls-1" d="M43.57,12.65a6.31,6.31,0,0,1-.78-.87s.33-.34.51-.52a7,7,0,0,1,.74.8S43.79,12.38,43.57,12.65Z"/><path class="cls-1" d="M28.27,7.33l-.14.36a4,4,0,0,1-.48-.2.37.37,0,0,1-.17-.18c-.07-.18-.2-.42-.14-.54a.55.55,0,0,1,.51-.22c.17,0,.28.3.4.47S28.26,7.16,28.27,7.33Z"/><path class="cls-1" d="M55.7,21.19c.2.17.45.29.44.39a1.92,1.92,0,0,1-.28.6l-.79-.56Z"/><path class="cls-1" d="M58.6,17.55l-.44,1.32H58c-.09-.28-.31-.6-.23-.81s.46-.43.7-.63Z"/><path class="cls-1" d="M.87,43c.51.14.84,1.09.64,1.83Z"/><path class="cls-1" d="M76,38.68a7.41,7.41,0,0,1,.28.79c0,.06-.09.19-.18.23s-.2-.07-.21-.13c-.06-.27-.09-.55-.13-.83Z"/><path class="cls-1" d="M30.43,17c-.27-.72-.12-.94.54-.84Z"/><path class="cls-1" d="M73.41,40.6c-.18.13-.35.29-.39.26a.67.67,0,0,1-.3-.39c0-.09.21-.2.33-.31Z"/><path class="cls-1" d="M52.62,43c-.19-.06-.43-.08-.54-.21s0-.35,0-.53l.14,0,.51.61Z"/><rect class="cls-2" x="92.72" y="1.39" width="3.3" height="63"/><path class="cls-1" d="M112,41h6.59V1.39H112ZM145,1.39V41h6.59V1.39ZM128.49,41h6.59V1.39h-6.59Z"/><path class="cls-2" d="M158.16,8h16.48V41h6.59V8h16.49V1.39H158.16Zm46.19,0h39.56V1.39H204.35Zm0,16.49h39.56V17.88H204.35Zm0,16.48h39.56V34.36H204.35Zm56-6.59v-33H253.8V41h39.56V34.36Z"/><path class="cls-1" d="M221.56,60.14,219.92,62v2.28h-2V54.21h2v5l4.51-5h2.41l-3.93,4.42,4.34,5.63h-2.57Z"/><path class="cls-1" d="M237.53,62.25H232.9l-.83,2h-2.16l4.36-10.05h1.88l4.35,10.05h-2.15Zm-.74-1.79-1.59-3.84-1.58,3.84Z"/><path class="cls-1" d="M253,54.21V64.26h-1.55L246.05,58v6.31h-2V54.21h1.49L251,60.7V54.21Z"/><path class="cls-1" d="M264.2,62.25h-4.63l-.82,2h-2.16L261,54.21h1.88l4.34,10.05H265Zm-.74-1.79-1.58-3.84-1.58,3.84Z"/><path class="cls-1" d="M280,59.19a5.11,5.11,0,0,1-5.38,5.07h-3.86V54.21h3.86A5.08,5.08,0,0,1,280,59.19Zm-2,0a3.23,3.23,0,0,0-3.34-3.12h-1.85V62.4h1.85A3.27,3.27,0,0,0,277.92,59.19Z"/><path class="cls-1" d="M290.13,62.25H285.5l-.83,2h-2.16l4.36-10.05h1.88l4.35,10.05H291Zm-.74-1.79-1.59-3.84-1.58,3.84Z"/></g></g></svg>